<svg style="fill-rule:evenodd;clip-rule:evenodd;stroke-linejoin:round;stroke-miterlimit:2;" xml:space="preserve" xmlns:xlink="http://www.w3.org/1999/xlink" xmlns="http://www.w3.org/2000/svg" version="1.1" viewBox="0 0 1663 1704" height="100%" width="100%">
    <g transform="matrix(45.0939,7.81832,-6.98928,40.3122,-18914.1,-9966.45)">
        <clipPath id="_clip1">
            <path d="M462.443,159.008C471.976,157.16 481.058,164.316 482.711,174.98C484.364,185.644 477.966,195.803 468.433,197.652C458.9,199.5 449.818,192.344 448.165,181.68C446.512,171.016 452.91,160.857 462.443,159.008Z"></path>
        </clipPath>
        <g clip-path="url(#_clip1)">
            <g transform="matrix(0.0215288,-0.00417539,0.00373264,0.0240825,67.1209,-278.088)">
                <rect style="fill:rgb(255,213,66);" height="3084.89" width="2364.95" y="19805.9" x="13718.3"></rect>
            </g>
            <g>
                <g>
                    <g transform="matrix(0.0184714,-5.7769e-21,5.16432e-21,-0.0207096,53.0901,352.973)">
                        <path style="fill:rgb(222,70,54);fill-rule:nonzero;" d="M23463,7585C23502,7575 23497,7564 23438,7534C23409,7519 23336,7478 23276,7443C23216,7407 23119,7358 23061,7333C23003,7308 22928,7274 22895,7257C22809,7214 22669,7160 22677,7173C22681,7180 22693,7201 22705,7220C22717,7239 22729,7263 22733,7272C22747,7312 22709,7271 22605,7137C22451.7,6938 22208.4,6633 22204,6633C22203,6634 22194,6696 22185,6769C22160,6968 22149,6972 22155,6780C22162,6581 22162,6570 22157,6545C22155,6534 22150,6506 22146,6483C22142,6459 22135,6438 22130,6435C22119,6428 22082,6629 22060,6814L22042,6965L22041,6820C22040,6663 22057,6518 22091,6405L22111,6335L22086,6184C22072,6100 22060,6020 22060,6005C22060,5979 22058,5978 22023,5985C21972,5994 21826,6071 21758,6123C21727,6146 21638,6223 21559,6294C21344,6487 21238,6557 21119,6584C21086,6592 21056,6601 21054,6603C21051,6606 21098,6639 21157,6678C21482,6890 21530,6923 21530,6931C21530,6945 21503,6942 21470,6925C21453,6916 21440,6912 21440,6915C21440,6945 21629,7299 21668,7343C21676,7352 21679,7360 21674,7360C21652,7360 21522,7190 21417,7023L21358,6932L21214,6883C21074,6835 21069,6834 21042,6850C21006,6872 20937,6949 20900,7006C20842,7097 20854,7243 20931,7396C20998,7531 21029,7547 21184,7529C21278,7518 21296,7519 21445,7544C21533,7559 21644,7583 21692,7596L21779,7620L21857,7570C22027,7463 22187,7453 22360,7540L22405,7562L22365,7521C22344,7498 22332,7480 22339,7480C22347,7480 22425,7552 22514,7639C22655,7778 22685,7803 22757,7839C22803,7862 22851,7880 22866,7880C22892,7880 22892,7880 22844,7813C22818,7775 22775,7717 22748,7682C22721,7647 22701,7613 22703,7607C22710,7588 22806,7694 22900,7825C22947,7890 22997,7959 23012,7979C23027,7999 23061,8050 23087,8093L23135,8171L23142,8035C23146,7960 23154,7881 23160,7860C23173,7813 23240,7710 23282,7675C23314,7648 23418,7596 23463,7585Z"></path>
                        <clipPath id="_clip2">
                            <path clip-rule="nonzero" d="M23463,7585C23502,7575 23497,7564 23438,7534C23409,7519 23336,7478 23276,7443C23216,7407 23119,7358 23061,7333C23003,7308 22928,7274 22895,7257C22809,7214 22669,7160 22677,7173C22681,7180 22693,7201 22705,7220C22717,7239 22729,7263 22733,7272C22747,7312 22709,7271 22605,7137C22451.7,6938 22208.4,6633 22204,6633C22203,6634 22194,6696 22185,6769C22160,6968 22149,6972 22155,6780C22162,6581 22162,6570 22157,6545C22155,6534 22150,6506 22146,6483C22142,6459 22135,6438 22130,6435C22119,6428 22082,6629 22060,6814L22042,6965L22041,6820C22040,6663 22057,6518 22091,6405L22111,6335L22086,6184C22072,6100 22060,6020 22060,6005C22060,5979 22058,5978 22023,5985C21972,5994 21826,6071 21758,6123C21727,6146 21638,6223 21559,6294C21344,6487 21238,6557 21119,6584C21086,6592 21056,6601 21054,6603C21051,6606 21098,6639 21157,6678C21482,6890 21530,6923 21530,6931C21530,6945 21503,6942 21470,6925C21453,6916 21440,6912 21440,6915C21440,6945 21629,7299 21668,7343C21676,7352 21679,7360 21674,7360C21652,7360 21522,7190 21417,7023L21358,6932L21214,6883C21074,6835 21069,6834 21042,6850C21006,6872 20937,6949 20900,7006C20842,7097 20854,7243 20931,7396C20998,7531 21029,7547 21184,7529C21278,7518 21296,7519 21445,7544C21533,7559 21644,7583 21692,7596L21779,7620L21857,7570C22027,7463 22187,7453 22360,7540L22405,7562L22365,7521C22344,7498 22332,7480 22339,7480C22347,7480 22425,7552 22514,7639C22655,7778 22685,7803 22757,7839C22803,7862 22851,7880 22866,7880C22892,7880 22892,7880 22844,7813C22818,7775 22775,7717 22748,7682C22721,7647 22701,7613 22703,7607C22710,7588 22806,7694 22900,7825C22947,7890 22997,7959 23012,7979C23027,7999 23061,8050 23087,8093L23135,8171L23142,8035C23146,7960 23154,7881 23160,7860C23173,7813 23240,7710 23282,7675C23314,7648 23418,7596 23463,7585Z"></path>
                        </clipPath>
                        <g clip-path="url(#_clip2)">
                            <g transform="matrix(61.2035,5.39163,5.04619,-57.0216,-8034.16,17603.6)">
                                <ellipse style="fill:url(#_Radial3);" ry="13.766" rx="16.262" cy="217.903" cx="470.625"></ellipse>
                            </g>
                        </g>
                    </g>
                    <g transform="matrix(0.851862,0,0,0.952907,61.1759,1.66266)">
                        <path style="fill:rgb(248,160,78);" d="M443.627,207.792C443.627,207.792 446.355,207.938 450.864,207.559C454.05,207.292 458.03,206.101 459.897,205.327C464.144,203.568 465.008,207.75 470.365,206.991C472.339,206.712 474.876,204.721 474.876,204.721L470.176,205.402L465.709,203.834L463.281,202.839L456.27,204.252L448.27,204.678L445.244,204.721L443.627,207.792ZM483.073,203.299C483.073,203.299 491.355,196.079 492.746,192.454C493.024,192.408 492.342,190.512 492.342,190.512C492.342,190.512 485.33,200.906 483.073,203.299ZM449.014,226.144C449.014,226.144 457.178,219.968 458.994,217.539C459.227,217.277 452.09,227.874 452.09,227.874C452.09,227.874 450.992,226.681 449.014,226.144ZM453.755,228.945L456.958,224.845L454.702,229.523L453.755,228.945Z"></path>
                    </g>
                    <g transform="matrix(0.880385,0,0,0.984813,49.9516,-10.1786)">
                        <path style="fill:rgb(177,39,25);" d="M441.056,222.285C441.056,222.285 452.54,219.843 455.287,217.911C455.437,217.908 455.316,222.081 455.287,223.135C455.43,223.091 446.763,230.461 446.763,230.461L443.234,230.461L451.867,224.27L445.511,226.282L441.056,222.285ZM453.689,234.386L459.335,228.438L458.379,238.904L462.006,241.8L465.323,230.461L466.146,222.285L466.665,231.175L468.501,223.135L468.82,226.809M468.82,226.809C468.82,226.809 476.519,220.919 479.366,217.911C479.435,217.884 481.715,213.65 481.715,213.65L481.715,215.895C481.715,215.895 493.122,210.328 494.614,208.675C494.49,208.79 497.877,209.674 497.877,209.674C497.877,209.674 489.453,214.439 479.366,219.193C478.727,219.046 475.158,223.135 475.158,223.135L469.733,230.461L466.146,244.053C466.146,244.053 458.357,240.53 453.689,234.386M469.733,209.674C469.733,209.674 474.192,211.201 477.654,208.675C481.116,206.149 481.838,203.507 481.715,202.813C481.679,202.849 477.654,205.823 477.654,205.823L476.717,206.591L475.51,208.216L472.509,209.674L469.733,209.674ZM491.085,205.823L485.837,212.245L493.313,207.675L491.085,205.823ZM441.056,217.911L449.551,218.811C449.551,218.811 443.618,220.113 441.056,220.31C440.893,220.119 441.056,217.911 441.056,217.911Z"></path>
                    </g>
                    <g transform="matrix(0.0184714,-5.7769e-21,5.16432e-21,-0.0207096,53.0901,352.973)">
                        <path style="fill:rgb(253,198,103);fill-rule:nonzero;" d="M22503,7690C22507,7674 22496,7663 22442,7631C22261,7527 22201,7509 22076,7526C21997,7537 22019,7557 22118,7562C22220,7568 22278,7588 22400,7660C22447,7687 22488,7710 22491,7710C22495,7710 22500,7701 22503,7690Z"></path>
                    </g>
                    <g transform="matrix(0.0184714,-5.7769e-21,5.16432e-21,-0.0207096,53.0901,352.973)">
                        <path style="fill:rgb(253,198,103);fill-rule:nonzero;" d="M23258,8241C23268,8235 23262,8227 23235,8211C23191,8186 23189,8185 23197,8208C23211,8248 23231,8259 23258,8241Z"></path>
                    </g>
                </g>
                <g>
                    <g transform="matrix(0.0184714,-5.7769e-21,5.16432e-21,-0.0207096,53.0901,352.973)">
                        <path style="fill:rgb(239,153,151);fill-rule:nonzero;" d="M22475,8231C22541,8265 22541,8265 22533,8228C22513,8120 22464,8032 22402,7990C22370,7968 22354,7965 22284,7965C22213,7966 22199,7969 22157,7995C22103,8029 22074,8075 22083,8112C22100,8177 22187,8238 22236,8220C22251,8214 22299,8209 22344,8208C22414,8206 22433,8209 22475,8231Z"></path>
                    </g>
                    <g transform="matrix(0.0184714,-5.7769e-21,5.16432e-21,-0.0207096,53.0901,352.973)">
                        <path style="fill:rgb(148,89,123);fill-rule:nonzero;" d="M22179,8247L22142,8222C22106,8198 22082,8171 22068,8140C22056,8114 22059,8255 22071,8290C22081,8316 22085,8319 22092,8307C22096,8298 22118,8281 22139,8269L22179,8247Z"></path>
                    </g>
                    <g transform="matrix(0.880385,0,0,0.984813,49.9516,-10.1786)">
                        <path style="fill:rgb(255,222,222);fill-rule:nonzero;" d="M438.523,295.865C438.901,297.19 437.537,298.978 435.523,299.798C433.844,300.492 433.739,300.45 431.222,297.716C427.592,293.847 425.746,291.575 425.263,290.356L424.801,289.241L426.123,285.624C427.739,281.124 428.41,279.589 428.725,279.715C428.851,279.757 430.173,280.136 431.662,280.535C433.404,280.998 434.851,281.271 435.691,281.271L436.991,281.271L436.719,282.154C436.572,282.659 435.921,283.984 435.271,285.141C434.641,286.276 434.012,287.496 433.865,287.832C433.676,288.316 433.508,288.421 433.173,288.337C432.921,288.295 432.355,288.19 431.893,288.106C431.075,287.979 431.096,288 432.355,288.631C433.068,288.989 434.18,289.767 434.83,290.335C436.005,291.407 438.187,294.688 438.523,295.865ZM419.808,251.242C420.521,253.471 420.941,256.184 420.815,258.034C420.689,260.326 419.367,263.775 418.465,264.217C417.815,264.532 410.115,264.785 408.163,264.553L407.072,264.427L407.177,263.123C407.24,262.408 407.345,261.294 407.45,260.663C407.534,260.032 407.597,259.485 407.555,259.443C407.408,259.275 406.17,262.955 405.604,265.31C404.785,268.633 403.023,272.923 402.079,273.827C401.093,274.773 397.841,277.276 397.589,277.276C397.484,277.276 397.337,277.023 397.253,276.687C396.54,273.469 394.987,270.757 392.679,268.717C391.441,267.623 388.106,265.962 386.532,265.647L385.21,265.394L385.965,264.448C386.385,263.922 388.064,261.756 389.679,259.611C393.477,254.628 395.973,251.852 398.155,250.169C399.75,248.95 400.023,248.803 401.219,248.676C402.918,248.487 410.702,248.466 414.605,248.634C417.458,248.781 417.731,248.824 418.507,249.349C419.22,249.812 419.43,250.148 419.808,251.242ZM449.406,231.964C449.337,231.639 447.579,235.347 447.579,235.347L445.878,240.807L452.13,240.516L457.849,241.753L465.181,244.752L465.242,243.6L459.121,239.814L454.422,235.352C454.422,235.352 449.476,232.29 449.406,231.964ZM411.269,232.842L411.688,233.283L410.954,234.419C409.842,236.143 408.856,237.237 407.303,238.435C406.527,239.045 405.415,239.97 404.848,240.538C404.282,241.085 403.778,241.484 403.736,241.442C403.548,241.253 404.722,239.255 405.226,238.919C405.52,238.73 405.772,238.498 405.772,238.393C405.772,238.309 406.149,237.825 406.632,237.342C408.163,235.722 407.387,235.575 403.673,236.774C400.086,237.931 400.275,237.825 395.533,242.136C393.917,243.587 393.603,243.798 393.603,243.44C393.603,243.093 395.434,241.011 397.664,238.835C397.738,238.765 397.809,238.694 397.883,238.624C399.121,237.426 400.086,236.395 400.023,236.332C399.792,236.101 395.134,238.793 394.337,239.634C393.498,240.496 391.924,241.484 391.924,241.148C391.924,240.854 395.323,237.636 396.288,237.026C396.771,236.732 397.82,236.122 398.596,235.722C400.128,234.881 400.589,234.566 400.442,234.44C400.4,234.398 399.855,234.587 399.246,234.881C398.638,235.176 397.925,235.428 397.673,235.428C397.232,235.428 395.197,236.416 393.141,237.615C392.795,237.806 392.449,237.968 392.203,238.05C392.048,238.103 391.93,238.124 391.882,238.099C391.714,238.057 391.882,237.867 392.239,237.699C392.595,237.51 393.288,236.984 393.812,236.522C394.652,235.786 396.393,234.755 399.477,233.178L400.421,232.715L399.477,232.842C398.953,232.905 397.862,233.178 397.022,233.451C396.204,233.725 395.155,233.956 394.715,233.956L393.917,233.935L394.861,233.451C396.393,232.652 399.498,231.664 401.072,231.454C401.869,231.327 403.967,231.054 405.751,230.823C407.534,230.591 409.024,230.339 409.087,230.276C409.149,230.213 409.422,230.171 409.695,230.171C410.052,230.171 410.178,230.297 410.178,230.591C410.178,231.138 410.702,232.211 411.269,232.842ZM417.27,224.898L424.205,220.554L430.984,217.02L438.931,215.44L440.48,215.218L440.804,219.228L441.248,222.231L431.99,223.325L425.88,226.82L419.08,229.958L417.314,228.548L417.27,224.898ZM481.702,192.466C482.143,195.221 480.632,200.625 478.974,202.413C478.702,202.707 477.841,203.338 477.086,203.822C476.226,204.389 475.555,205.02 475.261,205.525C474.484,206.913 470.834,208.7 468.085,209.058C467.166,209.163 466.977,209.18 467.141,208.969C467.177,208.925 467.225,208.871 467.288,208.805C467.477,208.574 467.854,207.859 468.106,207.186C468.463,206.261 468.652,205.988 469.008,205.988C469.638,205.988 470.393,205.756 470.393,205.567C470.393,205.483 469.89,205.357 469.302,205.294C464.644,204.789 462.63,202.329 462.63,197.197C462.63,193.749 464.015,190.531 466.596,188.029C467.592,187.072 467.932,186.757 468.205,186.757C468.333,186.757 468.448,186.828 468.61,186.935C469.323,187.419 469.869,187.356 470.351,186.746L470.771,186.22L471.673,187.062C472.177,187.524 472.743,187.903 472.911,187.903C473.079,187.882 473.729,187.419 474.359,186.872L475.492,185.842L477.17,187.293C478.198,188.197 479.016,188.744 479.331,188.744C479.583,188.744 479.856,188.66 479.94,188.534C480.38,187.819 481.303,189.858 481.702,192.466ZM489.944,197.752L496.89,190.957C496.89,190.957 495.484,182.212 496.208,173.859C496.933,165.506 496.983,154.573 496.983,154.573C496.983,154.573 500.316,153.159 502.86,153.306C503.032,154.65 504.533,169.164 504.533,169.164L506.199,179.925L507.286,189.816L506.471,193.849L496.21,205.5L493.905,207.364C493.905,207.364 488.651,207.465 489.944,197.752ZM475.89,198.859C476.415,197.66 477.149,194.064 477.002,193.559C476.897,193.223 476.813,193.223 476.184,193.475C475.827,193.644 474.715,193.833 473.729,193.917C471.736,194.064 470.519,193.812 468.148,192.739C467.183,192.298 466.805,192.214 466.659,192.382C466.197,192.971 465.903,194.443 465.882,196.209C465.882,197.87 465.945,198.249 466.47,199.3C466.994,200.373 467.204,200.583 468.379,201.151C469.89,201.908 471.652,202.16 472.764,201.803C473.834,201.445 475.408,199.973 475.89,198.859ZM484.744,195.179C485.437,195.852 484.975,197.45 483.8,198.543C483.129,199.153 481.094,200.457 481.094,200.268C481.094,200.226 481.366,199.427 481.702,198.501C482.038,197.597 482.373,196.504 482.457,196.104C482.541,195.704 482.772,195.263 482.961,195.116C483.443,194.758 484.367,194.779 484.744,195.179ZM462.714,190.889C462.777,191.162 462.63,192.214 462.399,193.265C461.77,195.936 461.791,195.894 461.413,195.053C460.91,193.959 460.931,191.436 461.455,190.868C461.98,190.3 462.546,190.3 462.714,190.889ZM479.856,193.791C480.653,193.791 479.898,192.844 478.24,191.73L476.583,190.615L478.534,190.763C480.17,190.889 480.464,190.847 480.464,190.594C480.464,189.879 475.555,189.459 475.282,190.132C475.219,190.321 475.24,190.636 475.345,190.826C475.638,191.309 479.415,193.791 479.856,193.791ZM468.085,190.931C470.141,189.774 470.54,189.354 469.827,189.059C469.176,188.828 466.952,188.723 466.659,188.912C466.008,189.354 466.596,189.753 467.875,189.774C468.589,189.795 468.568,189.816 467.099,190.636C466.26,191.12 465.568,191.625 465.568,191.793C465.568,192.277 465.84,192.193 468.085,190.931ZM503.124,151.355C503.124,151.355 506.713,149.268 508.774,144.401C510.834,139.534 510.829,140.894 511.914,136.315C511.684,136.428 511.314,130.354 510.401,131.454C509.488,132.553 510.014,136.459 509.588,137.26C509.162,138.061 506.683,142.903 506.683,142.903L504.825,143.261C504.825,143.261 506.6,140.047 506.472,137.65C506.344,135.252 505.586,133.293 505.586,133.293L503.719,137.08C503.719,137.08 504.931,136.945 504.176,139.16C503.421,141.376 502.204,144.356 502.204,144.356L500.905,144.753L501.585,138.583L499.243,140.689C499.243,140.689 498.529,144.915 497.73,145.401C496.93,145.888 494.874,143.061 494.874,143.061L492.418,143.583L493.565,146.159C493.565,146.159 488.09,147.723 486.801,144.672C486.81,144.629 483.296,143.734 483.296,143.734C483.296,143.734 484.495,147.189 486.18,148.08C487.865,148.971 492.788,151.318 494.585,152.067C496.381,152.816 497.042,153.046 497.042,153.046L501.978,151.999L503.124,151.355Z"></path>
                        <clipPath id="_clip4">
                            <path clip-rule="nonzero" d="M438.523,295.865C438.901,297.19 437.537,298.978 435.523,299.798C433.844,300.492 433.739,300.45 431.222,297.716C427.592,293.847 425.746,291.575 425.263,290.356L424.801,289.241L426.123,285.624C427.739,281.124 428.41,279.589 428.725,279.715C428.851,279.757 430.173,280.136 431.662,280.535C433.404,280.998 434.851,281.271 435.691,281.271L436.991,281.271L436.719,282.154C436.572,282.659 435.921,283.984 435.271,285.141C434.641,286.276 434.012,287.496 433.865,287.832C433.676,288.316 433.508,288.421 433.173,288.337C432.921,288.295 432.355,288.19 431.893,288.106C431.075,287.979 431.096,288 432.355,288.631C433.068,288.989 434.18,289.767 434.83,290.335C436.005,291.407 438.187,294.688 438.523,295.865ZM419.808,251.242C420.521,253.471 420.941,256.184 420.815,258.034C420.689,260.326 419.367,263.775 418.465,264.217C417.815,264.532 410.115,264.785 408.163,264.553L407.072,264.427L407.177,263.123C407.24,262.408 407.345,261.294 407.45,260.663C407.534,260.032 407.597,259.485 407.555,259.443C407.408,259.275 406.17,262.955 405.604,265.31C404.785,268.633 403.023,272.923 402.079,273.827C401.093,274.773 397.841,277.276 397.589,277.276C397.484,277.276 397.337,277.023 397.253,276.687C396.54,273.469 394.987,270.757 392.679,268.717C391.441,267.623 388.106,265.962 386.532,265.647L385.21,265.394L385.965,264.448C386.385,263.922 388.064,261.756 389.679,259.611C393.477,254.628 395.973,251.852 398.155,250.169C399.75,248.95 400.023,248.803 401.219,248.676C402.918,248.487 410.702,248.466 414.605,248.634C417.458,248.781 417.731,248.824 418.507,249.349C419.22,249.812 419.43,250.148 419.808,251.242ZM449.406,231.964C449.337,231.639 447.579,235.347 447.579,235.347L445.878,240.807L452.13,240.516L457.849,241.753L465.181,244.752L465.242,243.6L459.121,239.814L454.422,235.352C454.422,235.352 449.476,232.29 449.406,231.964ZM411.269,232.842L411.688,233.283L410.954,234.419C409.842,236.143 408.856,237.237 407.303,238.435C406.527,239.045 405.415,239.97 404.848,240.538C404.282,241.085 403.778,241.484 403.736,241.442C403.548,241.253 404.722,239.255 405.226,238.919C405.52,238.73 405.772,238.498 405.772,238.393C405.772,238.309 406.149,237.825 406.632,237.342C408.163,235.722 407.387,235.575 403.673,236.774C400.086,237.931 400.275,237.825 395.533,242.136C393.917,243.587 393.603,243.798 393.603,243.44C393.603,243.093 395.434,241.011 397.664,238.835C397.738,238.765 397.809,238.694 397.883,238.624C399.121,237.426 400.086,236.395 400.023,236.332C399.792,236.101 395.134,238.793 394.337,239.634C393.498,240.496 391.924,241.484 391.924,241.148C391.924,240.854 395.323,237.636 396.288,237.026C396.771,236.732 397.82,236.122 398.596,235.722C400.128,234.881 400.589,234.566 400.442,234.44C400.4,234.398 399.855,234.587 399.246,234.881C398.638,235.176 397.925,235.428 397.673,235.428C397.232,235.428 395.197,236.416 393.141,237.615C392.795,237.806 392.449,237.968 392.203,238.05C392.048,238.103 391.93,238.124 391.882,238.099C391.714,238.057 391.882,237.867 392.239,237.699C392.595,237.51 393.288,236.984 393.812,236.522C394.652,235.786 396.393,234.755 399.477,233.178L400.421,232.715L399.477,232.842C398.953,232.905 397.862,233.178 397.022,233.451C396.204,233.725 395.155,233.956 394.715,233.956L393.917,233.935L394.861,233.451C396.393,232.652 399.498,231.664 401.072,231.454C401.869,231.327 403.967,231.054 405.751,230.823C407.534,230.591 409.024,230.339 409.087,230.276C409.149,230.213 409.422,230.171 409.695,230.171C410.052,230.171 410.178,230.297 410.178,230.591C410.178,231.138 410.702,232.211 411.269,232.842ZM417.27,224.898L424.205,220.554L430.984,217.02L438.931,215.44L440.48,215.218L440.804,219.228L441.248,222.231L431.99,223.325L425.88,226.82L419.08,229.958L417.314,228.548L417.27,224.898ZM481.702,192.466C482.143,195.221 480.632,200.625 478.974,202.413C478.702,202.707 477.841,203.338 477.086,203.822C476.226,204.389 475.555,205.02 475.261,205.525C474.484,206.913 470.834,208.7 468.085,209.058C467.166,209.163 466.977,209.18 467.141,208.969C467.177,208.925 467.225,208.871 467.288,208.805C467.477,208.574 467.854,207.859 468.106,207.186C468.463,206.261 468.652,205.988 469.008,205.988C469.638,205.988 470.393,205.756 470.393,205.567C470.393,205.483 469.89,205.357 469.302,205.294C464.644,204.789 462.63,202.329 462.63,197.197C462.63,193.749 464.015,190.531 466.596,188.029C467.592,187.072 467.932,186.757 468.205,186.757C468.333,186.757 468.448,186.828 468.61,186.935C469.323,187.419 469.869,187.356 470.351,186.746L470.771,186.22L471.673,187.062C472.177,187.524 472.743,187.903 472.911,187.903C473.079,187.882 473.729,187.419 474.359,186.872L475.492,185.842L477.17,187.293C478.198,188.197 479.016,188.744 479.331,188.744C479.583,188.744 479.856,188.66 479.94,188.534C480.38,187.819 481.303,189.858 481.702,192.466ZM489.944,197.752L496.89,190.957C496.89,190.957 495.484,182.212 496.208,173.859C496.933,165.506 496.983,154.573 496.983,154.573C496.983,154.573 500.316,153.159 502.86,153.306C503.032,154.65 504.533,169.164 504.533,169.164L506.199,179.925L507.286,189.816L506.471,193.849L496.21,205.5L493.905,207.364C493.905,207.364 488.651,207.465 489.944,197.752ZM475.89,198.859C476.415,197.66 477.149,194.064 477.002,193.559C476.897,193.223 476.813,193.223 476.184,193.475C475.827,193.644 474.715,193.833 473.729,193.917C471.736,194.064 470.519,193.812 468.148,192.739C467.183,192.298 466.805,192.214 466.659,192.382C466.197,192.971 465.903,194.443 465.882,196.209C465.882,197.87 465.945,198.249 466.47,199.3C466.994,200.373 467.204,200.583 468.379,201.151C469.89,201.908 471.652,202.16 472.764,201.803C473.834,201.445 475.408,199.973 475.89,198.859ZM484.744,195.179C485.437,195.852 484.975,197.45 483.8,198.543C483.129,199.153 481.094,200.457 481.094,200.268C481.094,200.226 481.366,199.427 481.702,198.501C482.038,197.597 482.373,196.504 482.457,196.104C482.541,195.704 482.772,195.263 482.961,195.116C483.443,194.758 484.367,194.779 484.744,195.179ZM462.714,190.889C462.777,191.162 462.63,192.214 462.399,193.265C461.77,195.936 461.791,195.894 461.413,195.053C460.91,193.959 460.931,191.436 461.455,190.868C461.98,190.3 462.546,190.3 462.714,190.889ZM479.856,193.791C480.653,193.791 479.898,192.844 478.24,191.73L476.583,190.615L478.534,190.763C480.17,190.889 480.464,190.847 480.464,190.594C480.464,189.879 475.555,189.459 475.282,190.132C475.219,190.321 475.24,190.636 475.345,190.826C475.638,191.309 479.415,193.791 479.856,193.791ZM468.085,190.931C470.141,189.774 470.54,189.354 469.827,189.059C469.176,188.828 466.952,188.723 466.659,188.912C466.008,189.354 466.596,189.753 467.875,189.774C468.589,189.795 468.568,189.816 467.099,190.636C466.26,191.12 465.568,191.625 465.568,191.793C465.568,192.277 465.84,192.193 468.085,190.931ZM503.124,151.355C503.124,151.355 506.713,149.268 508.774,144.401C510.834,139.534 510.829,140.894 511.914,136.315C511.684,136.428 511.314,130.354 510.401,131.454C509.488,132.553 510.014,136.459 509.588,137.26C509.162,138.061 506.683,142.903 506.683,142.903L504.825,143.261C504.825,143.261 506.6,140.047 506.472,137.65C506.344,135.252 505.586,133.293 505.586,133.293L503.719,137.08C503.719,137.08 504.931,136.945 504.176,139.16C503.421,141.376 502.204,144.356 502.204,144.356L500.905,144.753L501.585,138.583L499.243,140.689C499.243,140.689 498.529,144.915 497.73,145.401C496.93,145.888 494.874,143.061 494.874,143.061L492.418,143.583L493.565,146.159C493.565,146.159 488.09,147.723 486.801,144.672C486.81,144.629 483.296,143.734 483.296,143.734C483.296,143.734 484.495,147.189 486.18,148.08C487.865,148.971 492.788,151.318 494.585,152.067C496.381,152.816 497.042,153.046 497.042,153.046L501.978,151.999L503.124,151.355Z"></path>
                        </clipPath>
                        <g clip-path="url(#_clip4)">
                            <g transform="matrix(1.28631,0,0,1,-132.464,2.4869e-14)">
                                <ellipse style="fill:rgb(253,142,170);" ry="1.877" rx="1.359" cy="190.289" cx="461.712"></ellipse>
                            </g>
                            <g transform="matrix(1.30489,0,0,1,-147.612,2.66454e-14)">
                                <ellipse style="fill:rgb(253,142,170);" ry="1.865" rx="1.588" cy="195.319" cx="484.609"></ellipse>
                            </g>
                            <path style="fill:rgb(254,193,191);" d="M464.911,189.774C464.911,189.774 467.456,187.579 468.106,187.252C468.516,187.046 469.632,187.853 469.632,187.853C469.632,187.853 470.419,187.519 470.757,187.006C470.783,187.001 472.857,188.507 472.857,188.507C472.857,188.507 475.447,186.435 475.494,186.424C475.542,186.412 478.417,188.838 479.169,188.992C479.157,188.973 480.285,189.187 480.577,188.507C480.615,188.14 474.589,183.546 474.589,183.546L468.106,185.164L465.236,187.691C465.236,187.691 464.943,189.905 464.911,189.774Z"></path>
                            <path style="fill:rgb(254,193,191);" d="M482.278,196.29C482.278,196.29 483.878,195.36 483.957,196.644C484.036,197.929 481.448,199.34 481.079,199.525C481.06,199.435 482.278,196.29 482.278,196.29Z"></path>
                            <path style="fill:rgb(254,193,191);" d="M468.576,205.618C468.576,205.618 474.794,206.095 476.701,204.506C476.845,204.479 471.29,210.261 467.062,209.354C466.916,209.178 467.93,206.513 468.576,205.618Z"></path>
                            <path style="fill:rgb(254,193,191);" d="M490.817,197.748C490.817,197.748 492.685,206.062 496.561,205.618C496.592,205.5 493.822,207.649 493.822,207.649C493.822,207.649 488.767,206.52 489.489,198.579C489.526,198.367 490.817,197.748 490.817,197.748Z"></path>
                            <path style="fill:rgb(254,193,191);" d="M462.816,192.01C462.816,192.01 461.96,190.833 461.75,191.8C461.54,192.768 461.957,194.711 462.178,195.095C462.343,195.382 462.816,192.01 462.816,192.01Z"></path>
                        </g>
                    </g>
                    <g transform="matrix(1.13046,0.223742,-0.165596,1.04694,-37.3369,-131.068)">
                        <ellipse style="fill:rgb(253,142,170);" ry="2.168" rx="2.11" cy="195.502" cx="479.295"></ellipse>
                    </g>
                    <g transform="matrix(1.05535,0.103347,-0.0828888,1.05915,-30.1874,-77.1051)">
                        <path style="fill:rgb(253,142,170);" d="M479.295,193.335C480.46,193.335 481.405,194.306 481.405,195.502C481.405,195.957 480.833,195.708 480.599,196.057C480.418,196.328 480.613,197.227 480.333,197.39C480.026,197.568 479.672,197.67 479.295,197.67C478.561,197.67 477.913,197.283 477.536,196.697C477.314,196.355 477.686,193.881 478.407,193.536C478.677,193.407 478.978,193.335 479.295,193.335Z"></path>
                    </g>
                    <g transform="matrix(0.0184714,-5.7769e-21,5.16432e-21,-0.0207096,53.0901,352.973)">
                        <path style="fill:white;fill-rule:nonzero;" d="M22405,8292C22468,8294 22520,8293 22520,8290C22520,8275 22437,8239 22391,8233C22336,8227 22231,8244 22188,8266C22153,8284 22090,8339 22090,8351C22090,8363 22107,8362 22115,8350C22118,8345 22159,8328 22206,8314C22282,8290 22302,8288 22405,8292Z"></path>
                    </g>
                </g>
                <g transform="matrix(0.0184714,-5.7769e-21,5.16432e-21,-0.0207096,53.0901,352.973)">
                    <path style="fill:rgb(18,50,102);fill-rule:nonzero;" d="M23073,8625L23014,8588C22982,8568 22941,8538 22923,8522L22892,8493L22942,8487C22999,8480 23008,8475 22995,8456C22953,8399 22864,8300 22854,8300C22848,8300 22840,8322 22837,8348C22831,8398 22784,8544 22757,8597C22736,8636 22713,8645 22700,8620C22694,8609 22684,8600 22678,8600C22672,8600 22630,8632 22584,8670C22539,8709 22495,8740 22488,8740C22481,8740 22453,8717 22425,8690L22373,8639L22320,8690C22260,8747 22264,8747 22220,8681C22205,8659 22204,8659 22167,8675C22162.6,8676.8 22158.6,8678.5 22155,8679.9C22129.5,8689.8 22123,8688 22102,8674C22087,8665 22049,8631 22018,8599C21986,8566 21960,8544 21960,8548C21960,8569 22002,8676 22032,8732C22050,8766 22086,8817 22113,8844L22159.3,8893.2L22161,8895L22154,8861C22147,8822 22137,8818 22268,8907C22319,8942 22365,8970 22369,8970C22374,8970 22370,8948 22359,8920C22349,8893 22343,8870 22346,8870C22349,8870 22423,8893 22511,8920C22599,8948 22678,8970 22687,8970C22697,8970 22678,8947 22642,8912C22569,8844 22563,8824 22618,8834C22676.2,8844.3 22758.5,8847.6 22830.4,8845.5C22905.5,8843.1 22969.3,8834.7 22982,8822C22987,8817 22942,8787 22883,8754C22823,8722 22776,8691 22777,8685C22779,8680 22819,8672 22867,8668C22916,8664 22982,8653 23014,8643L23073,8625Z"></path>
                    <clipPath id="_clip5">
                        <path clip-rule="nonzero" d="M23073,8625L23014,8588C22982,8568 22941,8538 22923,8522L22892,8493L22942,8487C22999,8480 23008,8475 22995,8456C22953,8399 22864,8300 22854,8300C22848,8300 22840,8322 22837,8348C22831,8398 22784,8544 22757,8597C22736,8636 22713,8645 22700,8620C22694,8609 22684,8600 22678,8600C22672,8600 22630,8632 22584,8670C22539,8709 22495,8740 22488,8740C22481,8740 22453,8717 22425,8690L22373,8639L22320,8690C22260,8747 22264,8747 22220,8681C22205,8659 22204,8659 22167,8675C22162.6,8676.8 22158.6,8678.5 22155,8679.9C22129.5,8689.8 22123,8688 22102,8674C22087,8665 22049,8631 22018,8599C21986,8566 21960,8544 21960,8548C21960,8569 22002,8676 22032,8732C22050,8766 22086,8817 22113,8844L22159.3,8893.2L22161,8895L22154,8861C22147,8822 22137,8818 22268,8907C22319,8942 22365,8970 22369,8970C22374,8970 22370,8948 22359,8920C22349,8893 22343,8870 22346,8870C22349,8870 22423,8893 22511,8920C22599,8948 22678,8970 22687,8970C22697,8970 22678,8947 22642,8912C22569,8844 22563,8824 22618,8834C22676.2,8844.3 22758.5,8847.6 22830.4,8845.5C22905.5,8843.1 22969.3,8834.7 22982,8822C22987,8817 22942,8787 22883,8754C22823,8722 22776,8691 22777,8685C22779,8680 22819,8672 22867,8668C22916,8664 22982,8653 23014,8643L23073,8625Z"></path>
                    </clipPath>
                    <g clip-path="url(#_clip5)">
                        <g transform="matrix(47.6621,-1.32952e-17,1.32952e-17,-47.5535,-169.909,17535.4)">
                            <path style="fill:rgb(91,135,239);fill-opacity:0.55;" d="M464.722,187.083C464.722,187.083 466.693,184.255 467.519,183.548C467.565,183.604 467.519,184.341 467.519,184.341C467.519,184.341 471.211,182.044 471.79,181.609C471.696,181.689 471.654,183.298 471.79,183.548C471.838,183.533 476.278,181.707 476.975,181.609C476.981,181.635 476.516,182.89 476.402,183.548C476.413,183.621 482.85,183.138 483.914,183.548C483.967,183.568 480.706,186.108 480.599,186.487C480.634,186.476 485.952,187.227 486.467,187.57C486.45,187.611 483.677,190.105 483.344,190.551C483.347,190.608 486.687,190.619 487.047,190.551C487.407,190.484 490.412,185.544 490.412,185.544C490.412,185.544 483.068,176.779 482.285,176.84C481.502,176.901 471.87,176.895 470.515,177.235C469.161,177.575 463.141,182.841 463.128,183.205C463.114,183.568 464.722,187.083 464.722,187.083Z"></path>
                        </g>
                    </g>
                </g>
            </g>
            <g transform="matrix(0.880385,0,0,0.984813,49.9516,-10.1786)">
                <path style="fill:rgb(34,31,145);fill-rule:nonzero;" d="M511.936,133.648C512.334,137.812 512.397,137.559 509.859,143.321C508.285,146.917 508.117,147.17 505.956,149.336L503.837,151.46L505.243,151.586C507.697,151.796 508.621,152.679 507.823,154.004C507.362,154.824 505.369,156.128 504.341,156.275L503.543,156.422L503.543,157.81C503.543,159.24 504.299,166.348 504.466,166.642C504.634,166.895 505.788,174.045 506.061,176.442C506.208,177.598 506.502,179.722 506.732,181.173C506.963,182.624 507.257,185.505 507.362,187.587C507.467,189.669 507.593,191.877 507.635,192.508C507.739,194.148 506.879,195.557 504.487,197.723C501.193,200.688 496.137,206.156 495.466,207.46C495.172,208.027 495.172,208.027 496.074,208.238C496.682,208.364 497.228,208.364 497.794,208.196C498.571,207.985 498.613,207.922 498.781,206.934C499.032,205.42 499.221,204.831 499.452,204.873C499.767,204.957 499.788,206.597 499.494,207.88C499.242,209.016 499.2,209.058 497.459,210.256C496.473,210.929 493.745,212.443 491.374,213.6C486.066,216.229 481.639,218.584 479.835,219.762C479.079,220.245 478.072,220.897 477.59,221.213C476.478,221.885 475.492,223.147 472.302,227.858L469.827,231.538L469.176,234.902C468.799,236.753 468.358,239.361 468.211,240.685C467.75,244.302 467.603,244.702 466.533,244.975C466.134,245.08 466.05,245.228 466.05,245.901C466.05,246.384 465.819,247.099 465.505,247.646C465.106,248.361 464.959,248.992 464.833,250.464C464.77,251.494 464.539,253.071 464.33,253.934C464.099,254.796 463.805,256.142 463.658,256.92L463.386,258.35L460.238,261.462C457.679,263.985 456.86,264.658 456.021,264.953C455.455,265.163 454.594,265.521 454.112,265.731C453.357,266.067 449.475,267.077 447.881,267.35C447.02,267.497 446.055,268.486 446.055,269.222C446.055,270.441 446.873,273.049 447.922,275.152C448.783,276.855 448.951,277.36 448.783,277.696C448.51,278.201 446.034,279.147 441.544,280.43C440.621,280.703 439.74,281.019 439.593,281.124C439.215,281.418 436.74,285.225 435.837,286.907C435.418,287.685 434.935,288.484 434.788,288.673C434.516,288.968 434.537,289.052 434.977,289.283C435.879,289.746 437.243,290.966 437.852,291.849C438.187,292.332 439.257,294.246 440.222,296.097C442.719,300.828 443.433,301.88 445.803,304.277C447.839,306.38 447.881,306.401 448.447,306.127C448.993,305.854 449.16,305.896 450.818,306.695C451.804,307.179 453.378,307.831 454.322,308.125C455.266,308.42 456.42,308.798 456.923,308.966C457.867,309.303 459.126,310.249 460.029,311.322C460.511,311.91 460.553,312.037 460.322,312.709C459.987,313.698 458.812,315.422 457.574,316.705C456.399,317.925 456.273,318.219 455.832,320.722C455.245,323.96 455.119,324.149 452.706,325.937C448.783,328.776 446.622,330.142 445.384,330.5C444.712,330.689 442.824,330.206 442.258,329.722C442.09,329.554 441.817,329.427 441.691,329.427C441.376,329.427 440.81,328.586 440.81,328.082C440.81,327.85 441.754,326.715 443.076,325.39C445.111,323.308 445.384,322.951 446.013,321.373C446.873,319.271 446.957,317.904 446.265,316.978C446.013,316.642 445.782,316.137 445.761,315.906C445.677,315.212 445.279,314.686 443.936,313.593C443.244,313.025 442.698,312.436 442.698,312.268C442.698,312.1 442.95,311.742 443.244,311.469L443.789,311.006L442.342,309.744C441.523,309.071 440.369,308.083 439.74,307.557C437.474,305.644 425.997,293.952 424.885,292.417C423.312,290.251 423.312,289.767 424.843,285.204C425.829,282.26 426.669,279.21 426.522,279.084C426.48,279.063 425.913,278.832 425.242,278.601L424.067,278.18L421.99,280.136C419.724,282.302 418.78,282.848 416.619,283.29C414.856,283.668 413.493,283.458 411.709,282.554C408.898,281.145 406.611,278.474 405.436,275.257L404.869,273.701L404.324,274.437C403.422,275.635 401.03,277.486 396.96,280.094C390.225,284.426 386.301,287.075 384.749,288.337C380.657,291.681 379.44,292.774 378.181,294.267L376.839,295.823L377.657,297.485C378.811,299.756 378.769,300.26 377.363,302.258C376.02,304.193 374.615,306.927 373.587,309.702C372.433,312.836 372.223,312.604 376.272,312.604C381.727,312.604 383.595,313.088 388.483,315.759C390.77,316.999 391.609,317.336 395.134,318.303C399.016,319.397 399.121,319.439 398.009,319.502C395.092,319.649 387.896,318.072 385.798,316.81C385.378,316.579 384.455,316.137 383.72,315.864C382.441,315.359 382.252,315.338 377.09,315.338C373.44,315.338 371.803,315.401 371.887,315.548C371.971,315.675 371.929,315.906 371.782,316.074C371.656,316.221 371.216,317.63 370.817,319.165C368.698,327.304 367.712,331.425 367.376,333.318L367.02,335.421L364.733,335.547C363.474,335.631 359.11,335.694 355.039,335.715L347.612,335.736L347.046,335.126C346.731,334.811 346.018,333.823 345.451,332.981C343.122,329.427 337.31,323.203 335.002,321.752C334.457,321.394 332.946,320.427 331.646,319.565C330.366,318.703 328.96,317.862 328.561,317.672C326.736,316.81 321.847,313.74 320.798,312.773C320.505,312.499 319.476,311.595 318.49,310.775C313.833,306.863 311.42,303.499 308.315,296.517C307.224,294.078 306.531,291.954 305.713,288.568C304.58,283.984 304.37,282.07 304.496,278.012C304.58,275.194 304.685,274.353 305.146,272.797C305.461,271.766 305.86,270.631 306.049,270.273C306.531,269.327 308.503,267.497 309.636,266.95C311.336,266.109 313.917,266.425 316.455,267.771C318.742,268.969 320.4,270.841 324.47,276.876C327.177,280.872 328.96,283.353 329.988,284.531C333.114,288.106 336.555,291.681 337.52,292.353C338.632,293.11 338.737,293.132 340.458,293.153L342.241,293.153L341.528,292.627C340.059,291.554 338.821,290.019 337.898,288.148C336.996,286.339 336.954,286.171 336.954,284.405C336.954,281.124 337.961,279.379 340.604,278.033C341.57,277.549 341.947,277.465 342.975,277.528C343.647,277.57 344.339,277.675 344.507,277.759C344.759,277.886 344.906,277.507 345.304,275.825C345.85,273.448 346.878,271.198 348.577,268.612C350.109,266.278 350.801,265.584 352.438,264.806C353.613,264.259 353.927,264.196 355.06,264.301C358.061,264.553 360.285,266.046 360.977,268.233C361.9,271.24 361.502,274.037 359.34,279.715C357.326,284.993 356.739,287.159 356.382,290.945C356.193,292.774 356.13,294.477 356.214,294.814L356.382,295.403L357.515,294.162C358.375,293.237 358.816,292.501 359.257,291.344C360.201,288.758 360.515,286.108 360.012,284.972C359.718,284.341 360.054,283.795 360.704,283.795C361.502,283.795 363.705,285.162 365.047,286.465C365.782,287.18 366.474,287.727 366.579,287.664C366.684,287.601 366.873,287.285 367.02,286.949C367.25,286.381 371.153,281.145 373.272,278.558C373.796,277.907 375.517,275.677 377.132,273.596C378.727,271.514 381.056,268.57 382.294,267.056C383.532,265.542 385.315,263.186 386.259,261.84C387.182,260.495 389.49,257.319 391.358,254.817C393.246,252.314 395.113,249.77 395.554,249.181C395.973,248.592 396.729,247.73 397.232,247.267C398.323,246.258 399.016,246.111 402.121,246.237L404.24,246.342L405.247,244.618C407.513,240.812 407.765,240.412 408.436,239.907C409.485,239.108 412.108,238.372 413.933,238.372C415.213,238.372 415.696,238.477 416.787,239.003C418.633,239.886 420.689,240.643 422.556,241.148C423.941,241.526 424.466,241.548 427.067,241.4C430.508,241.19 432.145,241.253 435.145,241.632C437.264,241.905 440.558,242.704 441.985,243.314L442.656,243.587L442.74,242.452C442.866,241.064 443.454,240.307 444.628,240.139C445.069,240.054 445.426,239.928 445.426,239.823C445.426,239.718 445.3,239.697 445.132,239.76C444.419,240.033 440.768,236.185 439.656,233.977C439.257,233.178 439.32,231.853 439.782,231.306C439.929,231.138 440.663,230.676 441.418,230.297C444.104,228.972 446.936,227.437 447.797,226.827C448.279,226.512 449.076,226.028 449.58,225.776C451.07,225.019 450.566,224.893 448.741,225.566C444.88,226.974 445.3,226.869 444.775,226.449C444.524,226.238 443.621,225.439 442.803,224.682C441.922,223.862 441.041,223.231 440.663,223.147C439.992,223 437.243,223.231 433.068,223.778C430.844,224.072 430.571,224.178 429.396,224.977C428.683,225.46 426.375,226.638 424.235,227.605C421.738,228.741 420.165,229.561 419.829,229.94C419.535,230.276 418.738,230.865 418.045,231.243C417.353,231.643 416.64,232.042 416.451,232.169C414.458,233.388 413.304,233.956 412.842,233.956C412.423,233.956 412.087,234.208 411.478,235.05C410.618,236.227 408.247,238.54 407.282,239.15C406.967,239.361 406.065,240.16 405.268,240.938C404.072,242.094 403.736,242.305 403.422,242.136C402.519,241.653 403.296,239.76 405.016,238.288C405.625,237.741 406.191,237.131 406.233,236.942C406.338,236.585 406.17,236.606 404.324,237.11C403.212,237.426 402.058,237.741 401.743,237.825C401.072,237.973 399.267,239.445 396.624,241.968C394.589,243.882 393.603,244.45 393.183,243.945C393.036,243.777 393.015,243.524 393.099,243.377C393.686,242.389 395.47,240.37 396.75,239.234C396.947,239.056 397.136,238.883 397.304,238.725L397.664,238.835C395.434,241.011 393.603,243.093 393.603,243.44C393.603,243.798 393.917,243.587 395.533,242.136C400.275,237.825 400.086,237.931 403.673,236.774C407.387,235.575 408.163,235.722 406.632,237.342C406.149,237.825 405.772,238.309 405.772,238.393C405.772,238.498 405.52,238.73 405.226,238.919C404.722,239.255 403.548,241.253 403.736,241.442C403.778,241.484 404.282,241.085 404.848,240.538C405.415,239.97 406.527,239.045 407.303,238.435C408.856,237.237 409.842,236.143 410.954,234.419L411.688,233.283L411.269,232.842C410.702,232.211 410.178,231.138 410.178,230.591C410.178,230.297 410.052,230.171 409.695,230.171C409.422,230.171 409.149,230.213 409.087,230.276C409.024,230.339 407.534,230.591 405.751,230.823C403.967,231.054 401.869,231.327 401.072,231.454C399.498,231.664 396.393,232.652 394.861,233.451L393.917,233.935L394.715,233.956C395.155,233.956 396.204,233.725 397.022,233.451C397.862,233.178 398.953,232.905 399.477,232.842L400.421,232.715L399.477,233.178C396.393,234.755 394.652,235.786 393.812,236.522C393.288,236.984 392.595,237.51 392.239,237.699C391.882,237.867 391.714,238.057 391.882,238.099C391.93,238.124 392.048,238.103 392.203,238.05L392.31,238.393C390.959,238.839 390.55,238.414 391.882,237.342C394.001,235.617 394.652,235.155 395.806,234.587C396.876,234.061 396.96,233.998 396.33,234.103C395.931,234.166 395.512,234.314 395.407,234.398C395.071,234.692 393.477,234.608 393.204,234.293C392.889,233.914 393.141,233.725 394.966,232.905C397.253,231.874 400.002,231.033 401.974,230.781C405.016,230.402 408.562,229.771 409.443,229.477C410.01,229.288 410.282,229.056 410.282,228.804C410.282,228.531 411.164,227.9 413.199,226.68C414.793,225.734 416.199,224.851 416.325,224.724C416.451,224.598 416.724,224.493 416.933,224.493C417.143,224.493 418.087,223.988 419.053,223.379C421.633,221.696 423.102,220.855 425.179,219.804C426.228,219.278 427.844,218.374 428.809,217.785C429.774,217.217 431.096,216.586 431.746,216.376C433.194,215.955 439.215,214.82 440.034,214.82C440.516,214.82 440.684,214.673 440.915,214.021C441.439,212.717 442.761,210.214 443.328,209.52L443.873,208.869L445.615,209.121C449.79,209.668 453.399,209.352 457.972,207.985C460.721,207.165 460.763,207.186 463.155,208.595C464.477,209.352 464.875,209.499 465.106,209.31C465.274,209.163 465.651,209.079 465.945,209.1C466.201,209.108 466.365,209.087 466.545,208.877L467.141,208.969C466.977,209.18 467.166,209.163 468.085,209.058C470.834,208.7 474.484,206.913 475.261,205.525C475.555,205.02 476.226,204.389 477.086,203.822C477.841,203.338 478.702,202.707 478.974,202.413C480.632,200.625 482.143,195.221 481.702,192.466C481.303,189.858 480.38,187.819 479.94,188.534C479.856,188.66 479.583,188.744 479.331,188.744C479.016,188.744 478.198,188.197 477.17,187.293L475.492,185.842L474.359,186.872C473.729,187.419 473.079,187.882 472.911,187.903C472.743,187.903 472.177,187.524 471.673,187.062L470.771,186.22L470.351,186.746C469.869,187.356 469.323,187.419 468.61,186.935C468.448,186.828 468.333,186.757 468.205,186.757L468.4,186.222C468.476,186.252 468.559,186.288 468.652,186.326C469.428,186.662 469.449,186.662 469.764,186.199C470.687,184.811 470.603,184.811 471.862,186.01L472.974,187.083L474.065,186.01C474.652,185.442 475.24,184.959 475.387,184.959C475.534,184.959 476.457,185.611 477.401,186.431C478.366,187.23 479.247,187.903 479.373,187.903C479.499,187.903 479.709,187.713 479.835,187.482C480.107,186.956 480.59,187.146 481.031,187.966C481.597,189.08 482.583,192.151 482.709,193.202C482.772,193.749 482.94,194.211 483.066,194.211C483.276,194.211 485.143,192.129 486.024,190.931L486.57,191.204C485.982,192.003 485.374,192.992 485.206,193.412C484.891,194.127 484.912,194.19 485.395,194.716C486.8,196.251 485.479,198.522 481.723,201.046C480.968,201.55 479.856,202.497 479.247,203.128C478.639,203.78 478.051,204.305 477.946,204.305C477.841,204.305 477.59,204.621 477.401,204.978C477.065,205.63 477.128,205.588 478.177,204.621C478.807,204.032 479.646,203.422 480.044,203.275C480.443,203.107 481.744,202.518 482.919,201.95C485.059,200.92 485.08,200.899 486.234,199.195C487.975,196.588 488.898,195.431 489.675,194.905C490.409,194.401 491.668,194.253 491.899,194.632C491.962,194.737 492.151,194.842 492.297,194.842C492.759,194.842 494.899,192.971 495.382,192.129C495.633,191.709 495.969,191.267 496.095,191.162C496.305,190.994 496.263,190.363 495.906,188.323C495.528,185.968 495.487,185.001 495.528,178.965C495.57,175.096 495.759,169.734 496.011,166.348C496.221,163.11 496.41,159.871 496.41,159.156C496.41,157.852 496.41,157.852 495.906,158.042C495.633,158.147 494.815,158.336 494.102,158.462C492.591,158.736 491.542,158.483 491.039,157.726C490.346,156.675 491.542,155.308 494.416,153.92C495.864,153.226 496.158,152.995 495.717,152.995C494.836,152.995 492.381,151.88 491.039,150.871C490.325,150.324 489.15,149.714 488.017,149.336C486.213,148.684 486.171,148.663 484.891,147.043C484.178,146.16 483.506,145.424 483.401,145.424C483.297,145.424 483.15,145.214 483.087,144.941C482.982,144.583 482.226,144.12 479.982,143.006C477.38,141.723 476.792,141.324 475.219,139.831C472.617,137.328 470.183,133.879 469.638,131.861C469.47,131.293 469.239,130.641 469.134,130.452C468.568,129.442 468.295,124.227 468.694,122.313C468.966,120.989 470.12,117.981 471.128,115.984C473.289,111.673 477.611,108.308 482.352,107.257C483.569,106.983 484.786,106.71 485.08,106.668C485.374,106.605 486.737,106.584 488.122,106.605C490.367,106.626 490.913,106.731 493.116,107.404C495.172,108.035 495.948,108.392 497.627,109.528C500.123,111.189 502.62,113.397 503.774,114.932C504.949,116.467 505.977,118.738 506.648,121.22C507.11,122.965 507.194,123.659 507.194,126.393C507.194,129.253 507.131,129.716 506.627,131.251L506.061,132.975L506.418,134.615C506.942,137.013 506.879,139.494 506.208,141.26L505.683,142.69L506.208,142.69C506.648,142.69 506.879,142.333 508.054,139.894L509.397,137.118L509.481,134.552C509.607,131.188 510.089,130.304 511.285,131.293C511.663,131.587 511.789,131.987 511.936,133.648ZM358.417,334.432C359.173,334.075 359.466,333.402 358.984,333.108C358.879,333.044 358.774,332.834 358.774,332.666C358.774,331.867 354.913,326.82 352.731,324.759C350.822,322.951 350.172,322.488 348.074,321.373C344.885,319.67 338.129,315.864 336.849,315.044C334.814,313.719 333.869,312.857 331.96,310.522C329.233,307.158 328.058,305.055 325.939,299.672C325.414,298.284 324.701,296.475 324.365,295.676C324.05,294.856 323.274,292.585 322.666,290.629C322.078,288.652 321.323,286.444 320.987,285.687C320.672,284.93 319.854,282.701 319.162,280.745C318.469,278.769 317.651,276.582 317.336,275.846C315.889,272.334 313.896,269.621 312.154,268.801C310.979,268.233 309.636,268.338 308.797,269.011C306.825,270.673 306.426,271.619 305.713,276.54C305.167,280.367 305.524,283.69 307.056,289.578C309.091,297.232 311.315,301.816 315.133,306.064C316.833,307.978 320.043,310.901 322.225,312.541C323.526,313.509 331.415,318.282 332.988,319.039C335.128,320.091 338.443,322.761 341.15,325.621C344.423,329.112 344.507,329.217 346.5,332.077C347.381,333.339 348.221,334.432 348.367,334.516C348.514,334.601 350.654,334.685 353.13,334.727C356.928,334.769 357.746,334.706 358.417,334.432ZM364.481,333.886C364.796,333.57 364.397,332.14 363.726,331.215C363.495,330.878 363.138,330.332 362.97,330.016C362.53,329.175 357.242,323.308 354.997,321.142C353.969,320.154 352.459,318.913 351.661,318.387C350.067,317.357 344.864,314.875 342.514,314.013C339.178,312.815 337.646,311.826 335.359,309.387C333.072,306.905 331.373,304.403 329.694,300.912C328.184,297.716 327.785,296.601 326.778,292.522C325.687,288.106 324.407,283.711 323.694,281.797C321.784,276.771 319.518,272.839 317.378,270.799C316.35,269.831 315.763,269.474 315.763,269.81C315.763,269.874 316.182,270.652 316.686,271.556C317.693,273.322 318.658,275.593 320.085,279.484C320.609,280.872 321.26,282.575 321.533,283.269C321.805,283.963 322.792,286.991 323.736,289.998C324.659,293.005 325.498,295.613 325.603,295.802C325.708,295.991 326.337,297.442 326.967,299.041C328.393,302.552 330.24,306.275 331.604,308.399C332.716,310.144 335.947,313.509 336.744,313.761C337.038,313.845 337.793,314.266 338.422,314.707C340.437,316.074 344.213,318.135 347.046,319.397C350.424,320.932 355.186,324.864 357.536,328.061C358.208,328.986 358.963,330.016 359.215,330.332C359.466,330.668 359.865,331.278 360.096,331.699C360.306,332.14 360.641,332.729 360.788,333.023C360.956,333.339 361.229,333.696 361.376,333.823C361.774,334.159 364.166,334.201 364.481,333.886ZM368.467,318.534C369.348,315.99 369.474,315.464 369.244,315.233C369.076,315.107 367.208,314.665 365.068,314.287C360.39,313.467 356.529,312.436 354.809,311.553C353.571,310.943 352.039,309.639 351.431,308.672C351.158,308.272 350.591,308.083 347.969,307.536C340.73,306.043 334.583,302.805 332.611,299.419C331.939,298.242 332.002,296.833 332.82,295.592C333.408,294.709 335.548,293.468 336.471,293.468C336.933,293.468 336.87,293.384 335.968,292.669C333.932,291.05 329.17,285.351 325.939,280.64C325.246,279.652 323.945,277.801 323.043,276.54C320.903,273.554 320.484,273.154 321.868,275.383C323.127,277.444 324.323,279.988 325.204,282.491C326.148,285.162 327.869,291.386 328.351,293.91C329.086,297.737 330.093,300.197 332.59,304.256C333.953,306.443 336.702,309.681 337.961,310.543C339.073,311.322 342.367,312.773 344.717,313.551C347.528,314.476 350.717,316.158 353.214,318.051C356.067,320.217 361.816,326.252 363.914,329.322L364.984,330.836L365.341,329.133C365.887,326.673 367.25,322.025 368.467,318.534ZM459.273,312.373C459.273,312.205 459.147,311.889 459,311.7C458.77,311.364 458.665,311.448 458.014,312.541C457.616,313.214 456.755,314.476 456.105,315.338C454.972,316.873 454.909,316.999 454.594,319.018C454.112,322.046 453.713,323.224 452.916,323.96C452.245,324.591 448.615,327.346 446.496,328.839C445.866,329.28 445.426,329.638 445.51,329.638C446.244,329.638 453.042,325.18 454.091,324.023C454.301,323.771 454.72,322.425 455.098,320.722L455.727,317.82L457.112,316.116C458.455,314.476 459.252,313.067 459.273,312.373ZM456.881,312.541C457.469,311.511 457.553,311.258 457.343,310.838C457.133,310.333 455.392,309.24 454.804,309.24C454.636,309.24 453.566,308.924 452.433,308.546C451.279,308.146 450.209,307.768 450.021,307.684C449.58,307.494 449.412,307.726 449.412,308.483C449.412,309.366 449.055,310.543 448.741,310.733C448.531,310.88 448.531,311.048 448.762,311.595C449.454,313.34 449.244,313.698 448.3,312.31C448.048,311.931 447.419,311.09 446.894,310.438L445.95,309.24L445.489,310.165C445.237,310.67 444.775,311.28 444.482,311.511C443.978,311.91 443.768,312.604 444.146,312.604C444.23,312.604 444.775,313.046 445.342,313.572C445.908,314.097 446.475,314.623 446.622,314.728C446.769,314.875 447.272,314.77 448.132,314.392C449.664,313.761 449.79,313.74 450.272,314.329C450.629,314.728 450.629,314.833 450.398,315.212C450.23,315.464 449.517,315.948 448.825,316.305C447.692,316.873 447.566,316.999 447.797,317.315C448.048,317.651 448.132,317.651 449.244,317.21C450.608,316.705 451.154,316.789 451.049,317.483C451.007,317.841 450.587,318.177 449.37,318.787L447.755,319.607L447.23,320.995C446.936,321.752 446.664,322.635 446.58,322.972C446.517,323.329 445.594,324.423 444.167,325.874C442.132,327.934 441.901,328.25 442.132,328.607C442.614,329.385 443.852,329.133 446.223,327.766C447.398,327.072 448.72,326.252 449.139,325.895C449.58,325.558 450.482,324.927 451.133,324.486C452.538,323.56 453,322.74 453.503,320.322C454.049,317.672 454.615,316.074 455.434,314.875C455.853,314.266 456.504,313.214 456.881,312.541ZM450.356,317.63C450.902,317.105 450.629,317.147 448.993,317.798C447.776,318.303 447.209,318.682 447.398,318.871C447.545,319.018 449.958,317.988 450.356,317.63ZM386.679,316.284C387.035,316.474 387.308,316.558 387.308,316.516C387.308,316.453 387.035,316.263 386.679,316.074C386.343,315.885 386.049,315.801 386.049,315.843C386.049,315.906 386.343,316.095 386.679,316.284ZM447.377,316.137C448.552,315.759 449.853,315.065 449.769,314.854C449.643,314.476 449.349,314.518 448.258,315.044C447.692,315.317 447.083,315.548 446.957,315.548C446.81,315.548 446.685,315.738 446.685,315.948C446.685,316.305 446.769,316.326 447.377,316.137ZM384.539,315.023C384.581,314.981 383.972,314.749 383.175,314.497C382.399,314.224 381.643,313.929 381.496,313.824C381.203,313.593 379.084,313.467 373.041,313.34C368.761,313.256 368.069,313.193 365.53,312.625C359.131,311.174 355.942,309.807 353.948,307.641C353.088,306.695 353.067,306.653 353.151,305.454C353.214,304.529 353.508,303.688 354.326,301.985C354.934,300.744 355.396,299.672 355.354,299.629C355.081,299.377 352.522,302.784 351.892,304.256C351.577,304.971 351.557,307.263 351.85,307.452C351.976,307.515 352.06,307.768 352.06,307.999C352.06,308.525 353.739,310.186 354.872,310.754C356.424,311.553 358.627,312.184 362.655,313.025C364.859,313.467 366.936,313.95 367.271,314.097C367.691,314.266 370.062,314.371 374.615,314.434C378.664,314.497 381.958,314.644 382.902,314.812C383.762,314.96 384.497,315.044 384.539,315.023ZM370.838,311.595C371.132,310.922 371.132,310.922 370.272,310.375C369.181,309.681 368.677,309.534 365.572,309.029C363.453,308.672 356.466,308.272 356.466,308.504C356.466,309.092 364.439,311.805 367.733,312.331C370.167,312.731 370.397,312.667 370.838,311.595ZM375.999,301.669C376.44,300.807 376.776,300.092 376.755,300.071C376.734,300.05 376.335,300.239 375.874,300.513C374.762,301.186 371.761,301.985 371.069,301.795C370.754,301.711 370.146,301.333 369.705,300.933L368.908,300.197L366.096,301.627C363.222,303.099 360.872,304.088 359.676,304.319C359.089,304.445 358.984,304.55 358.984,305.055C358.984,305.539 358.858,305.728 358.438,305.896C358.235,305.968 358.046,305.993 357.855,305.959C357.324,305.867 356.798,305.316 355.963,304.046L355.018,302.658L354.683,303.478C354.494,303.94 354.284,304.634 354.221,305.055L354.116,305.812L356.382,306.254C356.785,306.333 357.261,306.42 357.763,306.502C358.831,306.676 360.01,306.84 360.809,306.927C362.005,307.032 363.579,307.263 364.334,307.452C366.117,307.852 369.306,309.092 370.523,309.85L371.509,310.459L372.328,308.651C372.768,307.663 373.608,306.043 374.174,305.055C374.741,304.067 375.559,302.531 375.999,301.669ZM448.279,309.744C448.51,308.84 448.006,307.62 447.146,306.99C445.677,305.896 442.929,302.868 441.586,300.849C440.852,299.735 440.055,298.515 439.824,298.136L439.404,297.442L439.131,298.073C438.754,298.999 437.747,299.819 436.131,300.492L434.746,301.101L435.25,301.753C435.816,302.489 440.306,306.632 442.803,308.693L444.461,310.081L444.838,309.345C445.258,308.546 445.866,308.125 446.328,308.314C446.496,308.378 446.915,308.84 447.23,309.366C447.901,310.438 448.09,310.501 448.279,309.744ZM364.082,308.125C364.208,308.062 364.103,308.02 363.809,308.02C363.516,308.02 363.411,308.062 363.558,308.125C363.684,308.167 363.935,308.167 364.082,308.125ZM360.348,307.852C363.788,307.978 363.83,307.894 360.452,307.578C359.11,307.452 357.2,307.158 356.193,306.948C354.473,306.569 354.389,306.569 354.578,306.927C354.851,307.431 356.676,307.726 360.348,307.852ZM353.739,298.2C353.906,298.263 353.697,297.989 353.235,297.611C352.039,296.559 349.731,295.466 347.13,294.73C345.073,294.12 344.465,294.057 341.57,293.994C336.093,293.868 334.205,294.477 333.282,296.706C332.799,297.863 333.03,298.494 334.457,300.071C337.247,303.12 342.661,305.812 347.822,306.737C349.165,306.969 350.424,307.2 350.612,307.263C350.885,307.326 350.927,307.242 350.864,306.842C350.78,306.401 350.549,306.275 349.249,305.959C346.332,305.265 340.416,302.994 338.422,301.816C335.443,300.071 334.772,299.314 334.814,297.821C334.877,296.244 336.513,295.255 339.052,295.276C342.598,295.276 346.731,295.991 350.801,297.274C352.249,297.737 353.571,298.157 353.739,298.2ZM350.675,304.55C350.78,303.919 350.738,303.246 350.57,302.763C350.235,301.69 349.416,300.113 349.018,299.693C348.829,299.503 348.388,299.356 348.053,299.356L347.423,299.356L347.822,299.924C348.766,301.27 349.647,302.91 350.067,304.172L350.528,305.539L350.675,304.55ZM356.886,303.772C357.788,305.097 358.145,305.349 357.998,304.55C357.935,304.277 357.515,303.225 357.012,302.195C356.172,300.387 356.13,300.344 355.9,300.891C355.585,301.585 355.753,302.09 356.886,303.772ZM348.661,304.929C348.682,304.908 348.619,304.466 348.514,303.961C347.969,301.501 345.955,298.431 344.444,297.716C342.556,296.812 342.43,296.896 343.626,298.2C344.234,298.851 344.885,299.693 345.073,300.071C345.262,300.429 345.661,301.101 345.976,301.564C346.29,302.027 346.731,302.91 346.941,303.52C347.276,304.424 347.444,304.655 347.969,304.803C348.304,304.887 348.619,304.95 348.661,304.929ZM346.122,304.109C346.311,303.919 345.325,302.006 344.36,300.639C343.038,298.809 341.884,297.569 340.751,296.791C340.248,296.433 339.534,296.076 339.178,295.991C338.359,295.823 336.681,296.202 336.135,296.706C334.205,298.452 337.143,300.975 343.961,303.436C345.115,303.856 346.08,304.151 346.122,304.109ZM370.083,297.59C370.293,297.337 370.293,297.127 370.083,296.517C369.936,296.118 369.726,295.781 369.621,295.781C369.348,295.781 368.698,296.16 366.852,297.358C363.998,299.209 361.502,300.681 361.397,300.576C361.334,300.534 362.404,299.629 363.767,298.578C366.726,296.265 368.845,294.372 368.845,294.015C368.845,293.868 368.698,293.573 368.53,293.342C368.236,292.963 368.194,292.963 367.439,293.804C366.138,295.213 361.753,298.725 361.271,298.725C360.83,298.725 361.187,298.326 362.781,297.043C364.649,295.55 367.062,293.068 367.418,292.332C367.586,291.933 367.523,291.681 367.062,290.987C366.495,290.145 363.558,287.349 362.509,286.676C362.194,286.486 361.9,286.318 361.858,286.318C361.837,286.318 361.627,287.054 361.418,287.937C360.725,290.987 358.417,295.466 356.991,296.58C356.214,297.19 356.235,299.02 357.033,300.26C357.326,300.744 357.872,301.774 358.228,302.552L358.879,303.94L362.32,302.279C365.488,300.744 369.453,298.347 370.083,297.59ZM351.64,302.09C352.123,302.09 352.291,301.438 351.934,300.807C351.787,300.534 351.661,300.155 351.64,299.966C351.64,299.798 351.326,299.356 350.948,298.978C350.507,298.557 350.046,298.305 349.689,298.305C348.997,298.305 348.976,298.494 349.626,299.251C349.899,299.566 350.382,300.344 350.696,300.975C351.074,301.69 351.41,302.09 351.64,302.09ZM395.743,278.138C396.12,277.171 395.785,275.446 394.861,273.512C393.33,270.315 391.861,268.822 389.092,267.665C386.847,266.719 384.602,266.95 383.07,268.275C382.776,268.549 381.811,269.726 380.93,270.883C380.07,272.061 378.307,274.29 377.028,275.825C375.748,277.381 373.964,279.673 373.062,280.956C372.16,282.218 370.46,284.426 369.286,285.856C368.132,287.285 367.166,288.505 367.166,288.568C367.166,288.61 367.712,289.346 368.383,290.166C369.747,291.87 371.572,294.54 372.181,295.739C372.58,296.538 372.58,296.58 372.202,297.19C371.992,297.548 371.447,298.136 370.985,298.536L370.146,299.23L370.712,299.924C371.006,300.302 371.321,300.618 371.384,300.618C371.447,300.618 372.097,299.608 372.831,298.368C373.817,296.664 374.699,295.55 376.482,293.699C379.734,290.293 385.105,285.834 389.406,282.954C393.204,280.409 395.554,278.643 395.743,278.138ZM353.298,300.113C353.445,300.008 353.445,299.798 353.277,299.461C352.92,298.683 352.417,298.746 352.731,299.503C353.067,300.281 353.046,300.26 353.298,300.113ZM435.523,299.798C437.537,298.978 438.901,297.19 438.523,295.865C438.187,294.688 436.005,291.407 434.83,290.335C434.18,289.767 433.068,288.989 432.355,288.631C431.096,288 431.075,287.979 431.893,288.106C432.355,288.19 432.921,288.295 433.173,288.337C433.508,288.421 433.676,288.316 433.865,287.832C434.012,287.496 434.641,286.276 435.271,285.141C435.921,283.984 436.572,282.659 436.719,282.154L436.991,281.271L435.691,281.271C434.851,281.271 433.404,280.998 431.662,280.535C430.173,280.136 428.851,279.757 428.725,279.715C428.41,279.589 427.739,281.124 426.123,285.624L424.801,289.241L425.263,290.356C425.746,291.575 427.592,293.847 431.222,297.716C433.739,300.45 433.844,300.492 435.523,299.798ZM375.202,299.924C375.601,299.672 375.685,299.461 375.622,299.041C375.454,298.2 375.223,298.242 374.866,299.188C374.447,300.218 374.531,300.365 375.202,299.924ZM358.942,277.759C360.348,273.764 360.641,271.661 360.18,269.432C359.802,267.56 359.152,266.656 357.683,265.899C356.676,265.373 356.55,265.394 356.97,265.962C358.354,267.855 358.963,270.799 358.564,273.575C358.333,275.131 356.592,281.545 355.627,284.299C355.123,285.771 354.242,290.419 354.032,292.648C353.948,293.783 353.99,294.561 354.221,295.487C354.578,296.854 355.438,298.536 355.585,298.115C355.627,297.989 355.543,297.716 355.396,297.548C355.039,297.127 355.039,292.122 355.396,289.472C355.669,287.538 356.445,284.93 358.942,277.759ZM348.242,297.737L348.892,297.337L347.381,296.98C346.563,296.791 345.493,296.58 345.031,296.496L344.192,296.349L345.199,297.127C346.437,298.094 347.339,298.284 348.242,297.737ZM356.907,268.254C357.305,268.465 357.326,268.444 357.075,267.981C356.445,266.761 355.354,265.521 354.746,265.31C353.193,264.763 352.144,265.268 350.591,267.308C348.43,270.126 347.234,272.313 346.71,274.353C346.542,275.089 346.269,275.93 346.122,276.203C345.955,276.54 345.871,277.759 345.892,279.778C345.913,282.743 345.934,282.954 346.794,285.792C347.276,287.412 347.948,289.304 348.283,289.998C349.416,292.332 351.221,294.793 352.941,296.37L353.487,296.875L353.277,295.844C353.151,295.234 352.836,294.583 352.48,294.204C351.64,293.3 349.605,289.578 348.997,287.79C347.486,283.437 348.137,276.077 350.424,271.724C351.284,270.105 352.794,268.612 353.885,268.275C354.934,267.96 356.361,267.96 356.907,268.254ZM350.612,295.129L349.92,294.141C348.787,292.564 347.109,289.494 346.437,287.79C346.08,286.928 345.598,285.119 345.346,283.795C345.052,282.323 344.738,281.271 344.549,281.103C344.36,280.977 343.877,280.851 343.479,280.851C341.863,280.872 340.835,281.755 340.29,283.542C340.059,284.341 340.08,284.594 340.5,285.898C341.108,287.727 342.703,290.166 344.003,291.281C345.619,292.648 347.864,294.036 349.291,294.604L350.612,295.129ZM352.815,293.195C352.878,293.153 352.731,292.248 352.501,291.176C352.228,289.941 351.699,288.385 351.127,287.063C350.773,286.247 350.403,285.52 350.067,285.014C348.535,282.701 348.976,285.708 350.696,289.409C351.787,291.723 352.689,293.342 352.815,293.195ZM344.612,279.442C344.612,279.042 344.465,278.79 344.087,278.601C343.164,278.138 341.779,278.264 340.625,278.937C340.038,279.273 339.429,279.694 339.283,279.883C339.136,280.073 338.926,280.178 338.842,280.115C338.737,280.052 338.464,280.556 338.213,281.208C337.877,282.112 337.751,282.869 337.751,284.131C337.772,285.729 337.835,285.961 338.695,287.706C339.22,288.736 340.017,290.019 340.5,290.566C341.465,291.659 343.248,292.921 344.192,293.132C344.717,293.279 344.528,292.984 342.703,291.113C340.772,289.115 340.541,288.8 339.912,287.159C339.094,285.014 339.031,283.858 339.681,282.47C340.374,281.019 341.632,280.199 343.311,280.094C344.57,280.03 344.612,280.009 344.612,279.442ZM354.997,283.395C357.347,275.699 357.872,273.217 357.62,270.652L357.494,269.137L356.445,268.906C355.018,268.57 355.018,268.57 353.718,269.222C351.452,270.378 349.752,274.121 349.291,278.958L349.06,281.397L350.843,284.846C351.85,286.76 352.773,288.715 352.92,289.199C353.046,289.683 353.235,290.04 353.319,289.998C353.403,289.956 353.592,289.178 353.739,288.295C353.864,287.391 354.452,285.183 354.997,283.395ZM419.724,278.012C419.913,276.371 419.493,273.028 418.864,270.883C418.591,269.958 418.36,268.717 418.36,268.128C418.36,267.161 418.297,267.014 417.836,266.803C417.227,266.53 414.227,266.509 410.178,266.782C407.597,266.95 407.555,266.972 407.009,267.602C406.086,268.696 405.897,270.273 406.401,272.649C406.905,275.047 407.492,276.266 409.17,278.432C410.324,279.883 410.618,280.136 412.045,280.809C414.143,281.776 416.178,281.965 417.458,281.292C418.843,280.598 419.577,279.547 419.724,278.012ZM392.029,273.49C392.26,273.848 391.777,274.269 389.91,275.341C388.945,275.888 388.147,276.392 388.147,276.456C388.147,276.54 388.525,276.855 388.987,277.171C389.805,277.738 390.225,278.495 389.952,278.937C389.868,279.042 389.092,279.294 388.189,279.484C385.147,280.157 382.168,280.872 380.762,281.313C379.335,281.734 378.916,281.692 378.916,281.166C378.916,280.872 381.434,279.568 384.329,278.327C384.916,278.075 385.42,277.801 385.42,277.717C385.42,277.654 384.958,277.276 384.371,276.897C383.385,276.245 383.049,275.804 383.532,275.804L383.846,275.804C383.909,275.804 384.392,275.593 384.937,275.362C385.504,275.131 387.182,274.563 388.672,274.121C391.714,273.217 391.84,273.196 392.029,273.49ZM446.475,276.414C446.475,276.161 446.16,275.152 445.761,274.142C445.363,273.154 444.922,271.724 444.775,270.967C444.607,270.042 444.356,269.411 443.999,269.011C443.244,268.212 443.391,268.191 433.844,269.979L432.438,270.231L429.061,273.364C427.193,275.089 425.766,276.561 425.85,276.645C426.354,277.128 430.466,279.042 431.998,279.526C433.467,279.988 434.201,280.073 436.194,280.094C438.523,280.115 438.712,280.073 441.67,279.105C444.943,278.054 446.475,277.192 446.475,276.414ZM388.315,275.299C389.092,274.899 389.637,274.563 389.511,274.563C389.029,274.584 385.063,275.93 385.021,276.077C385,276.182 385.357,276.54 385.819,276.876C386.301,277.213 386.679,277.633 386.679,277.822C386.679,278.012 386.028,278.453 384.958,278.979C383.993,279.442 383.406,279.757 383.637,279.673C383.867,279.61 385.21,279.294 386.637,279L389.197,278.474L388.735,277.97C388.462,277.696 387.959,277.276 387.581,277.044C387.203,276.792 386.889,276.477 386.889,276.308C386.889,276.161 387.518,275.699 388.315,275.299ZM420.815,258.034C420.941,256.184 420.521,253.471 419.808,251.242C419.43,250.148 419.22,249.812 418.507,249.349C417.731,248.824 417.458,248.781 414.605,248.634C410.702,248.466 402.918,248.487 401.219,248.676C400.023,248.803 399.75,248.95 398.155,250.169C395.973,251.852 393.477,254.628 389.679,259.611C388.064,261.756 386.385,263.922 385.965,264.448L385.21,265.394L386.532,265.647C388.106,265.962 391.441,267.623 392.679,268.717C394.987,270.757 396.54,273.469 397.253,276.687C397.337,277.023 397.484,277.276 397.589,277.276C397.841,277.276 401.093,274.773 402.079,273.827C403.023,272.923 404.785,268.633 405.604,265.31C406.17,262.955 407.408,259.275 407.555,259.443C407.597,259.485 407.534,260.032 407.45,260.663C407.345,261.294 407.24,262.408 407.177,263.123L407.072,264.427L408.163,264.553C410.115,264.785 417.815,264.532 418.465,264.217C419.367,263.775 420.689,260.326 420.815,258.034ZM462.546,254.67C462.903,253.408 462.924,250.99 462.609,249.854L462.378,249.034L461.77,250.064C461.434,250.632 460.889,251.831 460.532,252.714C459.903,254.396 458.602,256.394 457.763,256.983C455.245,258.749 454.301,259.086 452.266,258.917C450.566,258.77 448.258,257.74 446.307,256.268C445.657,255.763 445.069,255.469 444.88,255.553C444.691,255.616 444.335,256.163 444.083,256.751C443.516,258.034 443.181,258.329 442.195,258.497C441.104,258.665 439.656,258.223 437.852,257.172C436.907,256.625 435.879,256.205 435.292,256.121C434.39,255.994 434.264,256.036 433.697,256.646C432.963,257.445 432.585,257.466 432.019,256.772C431.326,255.868 431.264,255.09 431.851,253.976C432.438,252.84 433.005,252.462 434.243,252.462C435.229,252.462 435.9,252.714 437.138,253.534C438.271,254.291 439.908,254.985 440.537,254.985C441.355,254.985 441.733,254.67 442.258,253.555C443.16,251.62 444.293,251.557 446.852,253.282C447.86,253.955 449.181,254.754 449.79,255.069C451.133,255.763 453.273,256.015 454.238,255.616C455.14,255.237 456.902,253.198 457.301,252.062C457.909,250.317 459.042,248.172 459.693,247.478C460.029,247.099 460.322,246.763 460.322,246.721C460.322,246.573 457.867,245.606 456.546,245.228C454.867,244.744 452.182,244.26 449.412,243.966C447.566,243.756 447.146,243.671 447.587,243.524C448.342,243.314 451.384,243.566 455.392,244.176L456.252,244.302L456.588,243.188C456.797,242.578 456.902,242.01 456.839,241.926C456.42,241.232 449.622,240.833 446.475,241.316C443.726,241.758 443.936,241.611 443.999,242.956L444.062,244.134L445.531,244.702C446.349,244.996 447.755,245.564 448.678,245.943C450.755,246.805 453.126,247.015 454.888,246.51C455.497,246.321 456.042,246.195 456.084,246.237C456.252,246.405 454.469,247.267 453.336,247.562C451.279,248.088 449.685,247.667 445.279,245.459C443.999,244.807 442.677,244.218 442.342,244.155C437.726,243.251 434.62,242.999 432.522,243.377L431.704,243.524L434.096,244.618C435.418,245.207 437.453,246.006 438.607,246.363C439.761,246.721 440.81,247.057 440.915,247.099C441.523,247.309 438.313,247.162 436.488,246.889C433.488,246.468 430.214,245.501 426.962,244.05C423.417,242.494 420.165,241.442 420.081,241.863C420.039,242.01 420.144,242.347 420.332,242.62C420.605,243.062 421.948,248.003 422.242,249.728C422.451,251.011 422.011,249.98 421.214,247.33C420.794,245.943 420.227,244.344 419.955,243.756C419.43,242.683 418.234,241.358 417.374,240.917C416.787,240.622 416.619,240.622 416.829,240.938C416.912,241.085 417.353,241.758 417.794,242.431C419.241,244.639 420.207,246.994 421.193,250.674C422.221,254.543 422.682,257.508 422.472,258.854C422.389,259.338 421.843,261.315 421.256,263.291C420.542,265.651 420.2,266.988 420.192,268.267C420.181,269.36 420.412,270.41 420.857,272.018C421.214,273.343 421.57,274.984 421.654,275.656C421.801,277.107 422.158,277.15 422.43,275.741C422.64,274.71 422.451,273.911 421.172,270.336C420.89,269.548 420.733,268.957 420.733,268.275C420.733,267.173 421.144,265.838 422.116,263.06C422.808,261.104 423.375,259.569 423.375,259.653C423.417,260.095 422.661,263.165 422.032,265.121C421.633,266.362 421.298,267.708 421.298,268.128C421.298,268.528 421.591,269.579 421.948,270.483C422.305,271.388 422.787,272.776 423.018,273.596C423.249,274.395 423.501,275.131 423.584,275.215C423.668,275.32 424.801,274.29 426.123,272.965C427.424,271.64 428.578,270.546 428.683,270.546C428.788,270.546 428.83,270.462 428.767,270.357C428.704,270.252 428.011,270 427.235,269.81C425.766,269.411 425.305,269.18 425.557,268.948C425.955,268.528 432.48,267.623 438.082,267.182C447.062,266.467 450.608,265.836 454.07,264.301C455.685,263.586 456.168,263.228 458.413,261.062C461.099,258.476 461.833,257.34 462.546,254.67ZM462.043,248.256L461.203,247.204L460.28,248.214C459.126,249.454 458.979,249.728 458.224,251.999C457.721,253.513 457.448,253.976 456.525,254.901C454.028,257.424 451.342,257.235 446.894,254.228C444.104,252.356 443.873,252.356 442.992,254.249C442.425,255.427 441.691,256.036 440.852,256.036C440.306,256.036 437.516,254.733 436.614,254.06C435.565,253.261 434.453,253.008 433.718,253.387C432.648,253.934 431.914,255.532 432.48,255.994C432.711,256.184 432.858,256.163 433.152,255.826C434.012,254.88 435.921,255.111 438.208,256.457C441.23,258.223 442.698,258.223 443.412,256.436C444.209,254.438 445.132,254.249 446.852,255.7C448.531,257.13 450.461,258.013 452.161,258.097C453.923,258.202 454.825,257.908 456.483,256.73C458.056,255.616 458.728,254.796 459.252,253.282C459.777,251.747 460.658,250.001 461.413,249.055L462.043,248.256ZM464.497,247.415C464.833,247.415 465.001,246.174 464.707,245.816C464.56,245.648 464.204,245.312 463.889,245.101L463.302,244.681L462.987,245.648L462.672,246.594L463.49,246.994C463.931,247.225 464.393,247.415 464.497,247.415ZM418.087,246.51C418.129,246.447 416.388,243.545 415.486,242.199C415.024,241.526 414.395,240.917 413.933,240.664C412.884,240.139 411.52,240.139 410.618,240.706C409.611,241.316 408.079,242.62 408.079,242.872C408.079,242.977 407.954,243.23 407.786,243.398C407.513,243.713 406.569,245.964 406.674,246.069C406.737,246.132 418.024,246.552 418.087,246.51ZM462.274,245.059C462.546,244.197 462.567,244.071 462.274,243.966C461.728,243.756 461.644,243.819 461.329,244.828C461.015,245.795 461.015,245.837 461.434,246.006C461.938,246.195 461.875,246.279 462.274,245.059ZM460.595,244.45C460.826,243.819 460.91,243.293 460.805,243.188C460.679,243.062 460.469,243.461 460.259,244.113C459.861,245.396 459.84,245.522 460.07,245.522C460.154,245.522 460.385,245.038 460.595,244.45ZM458.497,243.65C458.812,242.725 458.833,242.473 458.602,242.347C457.951,241.926 457.637,242.157 457.301,243.251C456.965,244.407 457.007,244.597 457.7,244.723C458.035,244.786 458.182,244.576 458.497,243.65ZM464.77,244.218C464.875,244.26 464.938,244.197 464.938,244.092C464.938,243.987 464.728,243.84 464.456,243.756C463.679,243.566 460.49,241.569 459.588,240.706C459.126,240.265 458.182,239.487 457.49,238.961C456.797,238.435 455.434,237.279 454.448,236.374C453.461,235.491 452.077,234.293 451.363,233.725L450.063,232.694L449.538,233.599C448.279,235.722 446.706,240.118 447.083,240.349C447.44,240.58 450.251,240.202 450.251,239.949C450.251,239.802 450.44,239.466 450.671,239.192C451.007,238.772 451.112,238.73 451.279,238.982C451.405,239.171 451.405,239.445 451.279,239.655C451.175,239.865 451.091,240.075 451.091,240.118C451.091,240.16 451.93,240.265 452.937,240.328C455.853,240.538 459.336,241.526 462.169,242.935C463.511,243.608 464.686,244.176 464.77,244.218ZM495.319,210.32C496.557,209.689 496.661,209.457 495.843,209.247C494.899,209.016 492.717,207.922 492.046,207.354C491.164,206.618 489.759,204.452 489.486,203.464C489.36,203.022 489.192,201.361 489.108,199.784L488.961,196.924L487.954,198.564C487.409,199.469 486.695,200.541 486.381,200.962C486.066,201.382 485.017,202.833 484.031,204.2C482.059,206.955 480.044,209.184 479.898,208.784C479.856,208.658 480.275,207.943 480.842,207.207C481.408,206.471 482.31,205.252 482.856,204.452C483.863,203.044 483.863,203.044 483.317,203.044C483.003,203.044 481.996,203.422 481.031,203.906C479.52,204.663 478.89,205.188 475.932,208.111C474.065,209.941 472.428,211.455 472.26,211.455C472.114,211.455 472.365,211.077 472.806,210.593L473.645,209.731L472.701,210.193C469.071,212.023 465.714,211.813 462.148,209.562L460.511,208.511L458.686,209.016C457.679,209.289 455.35,209.794 453.503,210.109C450.377,210.635 450,210.656 448.027,210.425C444.775,210.046 444.125,210.383 442.719,213.222C441.104,216.439 440.852,219.509 442.069,221.423C442.845,222.621 444.293,224.241 445.048,224.703C445.615,225.04 445.719,225.019 448.657,224.009L451.678,222.979L452.916,221.065C455.119,217.553 457.847,213.979 458.308,213.979C458.413,213.979 458.35,214.147 458.182,214.336C457.364,215.261 453.399,222.706 453.399,223.336C453.399,223.4 453.671,223.315 454.028,223.126C454.72,222.769 455.287,222.706 455.287,223C455.287,223.168 454.28,223.862 447.461,228.32C446.223,229.14 445.237,229.834 445.3,229.897C445.342,229.94 445.971,230.129 446.664,230.297C449.16,230.865 451.384,232.337 455.895,236.395C457.553,237.888 459.42,239.508 460.07,239.991C461.497,241.085 464.56,242.704 465.63,242.893C466.365,243.041 466.407,243.02 466.407,242.473C466.407,242.157 466.659,240.475 466.952,238.709L467.477,235.533L467.057,234.061C466.344,231.685 465.987,228.636 466.008,225.334L466.029,222.285L466.407,225.46C466.868,229.351 467.645,233.578 467.875,233.43C467.98,233.367 468.127,232.926 468.211,232.421C468.295,231.937 468.4,231.348 468.442,231.117C468.547,230.591 468.547,230.36 468.4,226.175C468.274,222.138 468.505,222.222 469.029,226.407C469.218,227.942 469.407,229.246 469.428,229.267C469.52,229.267 474.625,222.853 477.841,218.668C480.023,215.85 480.821,214.988 480.527,215.829C480.443,216.018 480.191,216.523 479.94,216.923C479.688,217.322 479.436,217.764 479.352,217.911C479.184,218.184 482.122,217.049 483.926,216.145C484.618,215.787 486.192,215.072 487.409,214.546C488.626,214.021 490.661,212.99 491.92,212.233C493.179,211.497 494.71,210.635 495.319,210.32ZM445.719,238.624C445.908,238.057 445.803,238.036 445.342,238.561C445.09,238.835 445.048,239.003 445.216,239.108C445.51,239.276 445.531,239.255 445.719,238.624ZM446.58,236.501C446.789,235.975 446.58,236.059 445.363,237.026C444.314,237.867 443.915,238.372 444.293,238.372C444.524,238.372 446.454,236.795 446.58,236.501ZM447.314,234.755C447.314,234.419 446.936,234.587 445.09,235.765C442.866,237.152 442.992,237.068 443.265,237.342C443.433,237.51 443.831,237.321 444.733,236.585C445.405,236.038 446.265,235.428 446.643,235.26C446.999,235.071 447.314,234.86 447.314,234.755ZM445.573,234.65C446.013,234.398 446.286,234.187 446.16,234.187C445.887,234.166 443.915,235.008 442.845,235.554C442.174,235.912 442.09,236.017 442.342,236.227C442.593,236.437 442.845,236.353 443.705,235.807C444.293,235.428 445.132,234.902 445.573,234.65ZM445.237,233.746C445.866,233.535 446.181,233.346 445.95,233.367C445.3,233.367 442.677,233.956 441.901,234.272C441.313,234.524 441.23,234.629 441.418,234.986C441.649,235.386 441.691,235.386 442.887,234.776C443.558,234.44 444.628,233.977 445.237,233.746ZM447.251,232.568C447.943,232.484 448.132,232.4 447.922,232.253C447.44,231.958 445.027,232.063 443.328,232.484C440.957,233.052 440.81,233.115 440.81,233.578C440.81,233.893 440.894,233.956 441.188,233.851C441.88,233.557 444.335,232.947 445.3,232.821C445.824,232.757 446.706,232.631 447.251,232.568ZM417.269,230.949C418.507,230.15 418.549,230.087 418.15,229.813C417.458,229.33 416.682,227.774 416.535,226.617C416.472,226.028 416.346,225.544 416.283,225.544C416.094,225.566 411.269,228.573 410.975,228.867C410.786,229.056 410.786,229.414 410.975,230.423C411.248,231.916 412.192,233.115 413.094,233.115C413.639,233.115 415.045,232.379 417.269,230.949ZM446.223,231.412C447.062,231.412 447.125,231.37 446.727,231.201C445.887,230.865 443.495,230.781 442.656,231.075C441.88,231.327 440.684,232.211 440.873,232.4C440.915,232.463 441.23,232.4 441.565,232.253C442.467,231.916 445.111,231.433 446.223,231.412ZM440.558,221.738L440.243,220.96C439.908,220.161 439.929,217.049 440.285,216.229C440.411,215.934 440.327,215.871 439.74,215.892C438.985,215.913 434.935,216.775 432.103,217.532C429.627,218.184 425.347,220.392 419.892,223.82L417.311,225.418L417.311,226.512C417.311,227.374 417.437,227.753 417.962,228.468C418.318,228.972 418.717,229.309 418.843,229.267C419.829,228.825 426.543,225.692 426.962,225.481C427.256,225.313 428.452,224.598 429.627,223.862C431.41,222.769 431.956,222.516 432.879,222.453C434.998,222.306 439.027,221.949 439.803,221.843L440.558,221.738ZM474.422,208.28C475.555,207.607 475.785,207.375 475.701,207.039C475.638,206.808 475.534,206.618 475.45,206.618C475.387,206.618 474.526,207.102 473.54,207.67C470.981,209.184 469.764,209.605 467.624,209.731C465.547,209.836 465.085,210.256 466.742,210.488C469.365,210.845 470.624,210.467 474.422,208.28ZM506.229,189.08C506.313,184.475 506.187,183.213 504.907,175.285C504.634,173.603 504.278,171.29 504.089,170.133C503.921,168.977 503.585,166.79 503.333,165.254C502.83,161.974 502.452,157.558 502.473,155.14C502.494,153.625 502.452,153.415 502.137,153.436C501.55,153.457 499.074,154.025 498.193,154.319L497.396,154.593L497.333,158.904C497.249,163.467 496.787,172.425 496.389,177.241C496.2,179.47 496.2,180.837 496.389,183.024C496.619,185.611 497.291,190.826 497.564,192.045C497.69,192.613 497.165,192.739 496.955,192.193C496.85,191.94 496.64,192.108 495.99,192.908C495.549,193.496 493.976,195.031 492.528,196.335L489.864,198.691L490.01,200.92C490.115,202.917 490.22,203.317 490.892,204.684C491.773,206.45 492.822,207.397 493.514,207.018C495.088,206.177 503.984,196.966 505.369,194.737L506.166,193.475L506.229,189.08ZM483.8,198.543C484.975,197.45 485.437,195.852 484.744,195.179C484.367,194.779 483.443,194.758 482.961,195.116C482.772,195.263 482.541,195.704 482.457,196.104C482.373,196.504 482.038,197.597 481.702,198.501C481.366,199.427 481.094,200.226 481.094,200.268C481.094,200.457 483.129,199.153 483.8,198.543ZM491.06,196.083C491.626,195.746 491.752,195.578 491.542,195.452C490.976,195.074 490.556,195.305 490.262,196.146C490.094,196.63 490.136,196.609 491.06,196.083ZM506.984,153.583C507.152,153.289 507.131,153.121 506.837,152.847C506.523,152.532 506.061,152.469 504.11,152.427C502.809,152.406 501.571,152.427 501.34,152.49C501.109,152.532 500.438,152.679 499.851,152.805C498.466,153.079 494.333,154.698 493.43,155.308C490.451,157.369 491.122,158.294 495.088,157.6C495.822,157.474 496.41,157.285 496.41,157.179C496.41,157.074 496.032,157.053 495.528,157.137C494.207,157.39 492.004,157.285 492.004,156.99C492.004,156.738 494.815,155.034 496.221,154.425C498.613,153.415 501.067,152.932 503.795,152.911C505.788,152.889 506.313,152.953 506.585,153.226C506.9,153.541 506.774,153.625 505.117,154.446C503.229,155.35 502.893,155.728 504.32,155.308C505.243,155.034 506.648,154.109 506.984,153.583ZM495.717,156.549C496.305,156.359 496.368,156.254 496.347,155.623C496.326,155.236 496.307,154.908 496.305,154.908C496.305,154.908 495.969,155.076 495.57,155.245C495.172,155.434 494.416,155.834 493.913,156.107C493.137,156.549 493.053,156.654 493.346,156.822C493.703,157.011 494.458,156.927 495.717,156.549ZM505.578,153.752C506.103,153.478 506.124,153.436 505.725,153.415C505.473,153.415 505.012,153.373 504.676,153.331C503.69,153.184 503.333,153.373 503.333,154.046L503.333,154.656L504.152,154.362C504.613,154.214 505.243,153.941 505.578,153.752ZM511.138,138.59L511.138,135.982C511.117,134.531 511.054,132.996 510.991,132.554C510.908,132.113 510.782,131.755 510.677,131.755C510.488,131.755 510.32,132.744 510.131,135.225C509.963,137.412 509.502,138.863 508.117,141.576C507.131,143.469 507.11,143.49 506.229,143.637C503.522,144.078 501.214,144.983 500.144,146.013C499.158,146.959 498.864,146.749 499.683,145.698C500.018,145.256 500.291,144.814 500.312,144.688C500.333,144.583 500.459,143.91 500.585,143.237C500.711,142.543 500.816,141.555 500.816,141.029L500.816,140.083L500.165,140.714C499.431,141.408 499.179,141.933 499.032,143.153C498.864,144.436 498.088,145.719 497.438,145.803C496.997,145.845 496.682,145.634 495.864,144.73C494.899,143.679 494.794,143.616 494.207,143.805C493.85,143.91 493.556,144.036 493.535,144.057C493.493,144.078 493.64,144.478 493.829,144.962C494.06,145.55 494.291,145.845 494.542,145.845C495.004,145.845 497.249,146.812 497.249,147.022C497.249,147.085 497.081,147.085 496.892,147.022C495.78,146.581 493.263,146.455 491.185,146.707C489.171,146.938 488.961,146.938 488.248,146.56C487.304,146.076 486.423,145.382 486.423,145.109C486.423,144.877 485.541,144.646 484.471,144.604L483.758,144.583L484.723,145.592C485.227,146.16 485.814,146.917 486.003,147.275C486.276,147.8 486.612,148.011 488.059,148.473C489.024,148.789 490.661,149.546 491.689,150.156C493.472,151.228 494.458,151.607 496.598,152.153C497.312,152.343 497.459,152.448 497.228,152.616C497.018,152.763 497.081,152.784 497.459,152.679C497.752,152.616 498.948,152.343 500.123,152.111C502.117,151.691 502.368,151.586 503.375,150.702C506.166,148.284 507.844,146.16 508.621,144.078C508.851,143.511 509.502,142.039 510.089,140.819L511.138,138.59ZM493.074,145.908C493.179,145.803 493.053,145.424 492.822,145.046C492.57,144.688 492.318,144.394 492.255,144.394C492.171,144.415 491.227,144.583 490.136,144.772L488.143,145.109L488.856,145.719C489.57,146.307 489.633,146.307 491.248,146.181C492.171,146.118 492.99,145.992 493.074,145.908ZM498.298,143.153C498.529,142.564 498.634,142.06 498.55,142.081C498.466,142.081 497.899,142.312 497.27,142.606C496.661,142.88 496.011,143.111 495.864,143.111C495.361,143.111 495.528,143.447 496.41,144.247C497.606,145.319 497.543,145.382 498.298,143.153ZM503.753,138.422C503.753,138.001 503.669,137.643 503.543,137.643C503.166,137.643 501.844,138.968 501.949,139.242C502.012,139.389 501.97,140.062 501.865,140.735C501.487,143.279 501.424,144.162 501.634,144.162C501.949,144.162 503.753,139.284 503.753,138.422ZM503.606,134.91C505.348,131.84 506.334,125.236 505.536,121.998C504.236,116.825 501.781,113.502 496.871,110.285C495.046,109.086 493.703,108.56 491.374,108.119C486.15,107.109 479.52,108.729 476.1,111.82C474.191,113.565 473.268,114.785 472.009,117.203C470.036,121.031 469.344,124.206 469.785,127.423C470.057,129.526 470.372,130.473 471.694,133.227C472.68,135.309 472.89,135.583 475.177,137.833C478.072,140.672 478.974,141.281 482.143,142.585C483.968,143.342 484.891,143.595 486.087,143.679C488.017,143.826 492.151,143.384 493.661,142.88C497.417,141.576 501.802,138.064 503.606,134.91ZM505.348,141.471C506.019,139.809 506.124,137.58 505.641,135.793C505.473,135.204 505.264,134.699 505.201,134.699C505.117,134.699 504.907,135.183 504.718,135.772C504.424,136.634 504.403,136.971 504.592,137.559C504.886,138.443 504.76,139.01 503.774,141.534L502.977,143.511L503.627,143.384C504.55,143.216 504.697,143.048 505.348,141.471Z"></path>
            </g>
            <g transform="matrix(0.880385,0,0,0.984813,49.9516,-10.1786)">
                <path style="fill:rgb(34,31,145);fill-rule:nonzero;" d="M400.442,234.44C400.589,234.566 400.128,234.881 398.596,235.722C397.82,236.122 396.771,236.732 396.288,237.026C395.323,237.636 391.924,240.854 391.924,241.148C391.924,241.484 393.498,240.496 394.337,239.634C395.134,238.793 399.792,236.101 400.023,236.332C400.086,236.395 399.121,237.426 397.883,238.624C397.809,238.694 397.738,238.765 397.664,238.835L397.304,238.725C397.834,238.227 398.187,237.857 398.155,237.825C397.988,237.657 395.449,239.213 395.05,239.718C394.421,240.538 392.449,241.779 391.903,241.695C391.651,241.674 391.4,241.505 391.358,241.379C391.253,241.064 393.854,238.183 394.715,237.657C395.848,236.942 395.092,237.068 393.624,237.825C393.124,238.084 392.681,238.271 392.31,238.393L392.203,238.05C392.449,237.968 392.795,237.806 393.141,237.615C395.197,236.416 397.232,235.428 397.673,235.428C397.925,235.428 398.638,235.176 399.246,234.881C399.855,234.587 400.4,234.398 400.442,234.44ZM468.22,181.483C468.597,181.163 468.922,180.915 469.134,180.795L469.995,180.311L469.659,180.984L469.302,181.636L470.016,181.11C471.232,180.206 474.757,178.419 474.883,178.629C474.967,178.755 474.694,179.302 474.275,179.87C473.876,180.437 473.54,180.942 473.54,181.005C473.54,181.047 474.422,180.795 475.513,180.437C477.82,179.659 481.198,179.092 481.555,179.449C481.744,179.638 480.968,180.374 478.932,181.846C478.639,182.078 479.037,182.12 481.45,182.12C481.845,182.12 482.224,182.126 482.589,182.137L482.571,182.74C481.062,182.696 479.335,182.765 478.114,182.982C476.96,183.192 477.086,182.772 478.618,181.342C479.373,180.606 479.772,180.122 479.562,180.122C479.373,180.122 477.716,180.585 475.869,181.173C474.023,181.741 472.47,182.225 472.407,182.225C472.344,182.225 472.47,181.741 472.68,181.173C472.911,180.585 472.995,180.122 472.89,180.122C472.806,180.122 471.841,180.711 470.771,181.447C468.022,183.318 468.232,183.234 468.379,182.414L468.526,181.699L468.49,181.737L467.519,182.772C466.952,183.339 466.197,184.412 465.819,185.127C465.19,186.304 464.309,188.555 464.309,188.996C464.309,189.08 464.854,188.618 465.526,187.924C466.176,187.251 466.973,186.536 467.288,186.347C467.729,186.052 467.865,186.014 468.4,186.222L468.205,186.757C467.932,186.757 467.592,187.072 466.596,188.029C464.015,190.531 462.63,193.749 462.63,197.197C462.63,202.329 464.644,204.789 469.302,205.294C469.89,205.357 470.393,205.483 470.393,205.567C470.393,205.756 469.638,205.988 469.008,205.988C468.652,205.988 468.463,206.261 468.106,207.186C467.854,207.859 467.477,208.574 467.288,208.805C467.225,208.871 467.177,208.925 467.141,208.969L466.545,208.877C466.78,208.606 467.04,208.021 467.561,206.787L467.875,206.009L467.078,205.798C465.379,205.315 463.994,204.347 463.155,203.022C462.504,202.013 461.791,199.637 461.791,198.501C461.791,197.849 461.623,197.324 461.245,196.756C460.217,195.179 459.84,192.971 460.322,191.225C460.616,190.195 461.854,189.101 462.63,189.206C463.155,189.291 463.239,189.206 463.469,188.449C464.099,186.283 465.106,184.58 466.68,182.94C467.175,182.418 467.737,181.893 468.22,181.483ZM477.002,193.559C477.149,194.064 476.415,197.66 475.89,198.859C475.408,199.973 473.834,201.445 472.764,201.803C471.652,202.16 469.89,201.908 468.379,201.151C467.204,200.583 466.994,200.373 466.47,199.3C465.945,198.249 465.882,197.87 465.882,196.209C465.903,194.443 466.197,192.971 466.659,192.382C466.805,192.214 467.183,192.298 468.148,192.739C470.519,193.812 471.736,194.064 473.729,193.917C474.715,193.833 475.827,193.644 476.184,193.475C476.813,193.223 476.897,193.223 477.002,193.559ZM476.331,195.725C476.499,194.947 476.499,194.947 475.114,195.662C474.233,196.125 473.834,196.188 472.365,196.146C471.421,196.125 470.414,196.02 470.099,195.894C469.071,195.515 467.246,196.798 466.889,198.165C466.701,198.943 467.309,199.91 468.442,200.625C469.323,201.172 469.617,201.235 471.107,201.256C472.575,201.256 472.911,201.193 473.582,200.73C474.883,199.847 475.911,197.997 476.331,195.725ZM468.127,195.852L468.904,195.326L468.064,194.863C467.624,194.611 467.162,194.253 467.078,194.064C466.931,193.812 466.847,193.875 466.638,194.422C466.386,195.158 466.323,198.123 466.575,197.576C466.868,196.924 467.372,196.356 468.127,195.852ZM476.058,194.422C476.058,194.359 474.967,194.338 473.645,194.38C471.484,194.464 471.065,194.422 469.47,193.917C468.484,193.623 467.624,193.265 467.561,193.16C467.393,192.908 467.036,192.887 467.036,193.139C467.036,193.391 468.358,194.548 469.092,194.926C469.995,195.389 472.198,195.746 473.351,195.62C474.317,195.494 476.058,194.737 476.058,194.422ZM462.399,193.265C462.63,192.214 462.777,191.162 462.714,190.889C462.546,190.3 461.98,190.3 461.455,190.868C460.931,191.436 460.91,193.959 461.413,195.053C461.791,195.894 461.77,195.936 462.399,193.265ZM478.24,191.73C479.898,192.844 480.653,193.791 479.856,193.791C479.415,193.791 475.638,191.309 475.345,190.826C475.24,190.636 475.219,190.321 475.282,190.132C475.555,189.459 480.464,189.879 480.464,190.594C480.464,190.847 480.17,190.889 478.534,190.763L476.583,190.615L478.24,191.73ZM469.827,189.059C470.54,189.354 470.141,189.774 468.085,190.931C465.84,192.193 465.568,192.277 465.568,191.793C465.568,191.625 466.26,191.12 467.099,190.636C468.568,189.816 468.589,189.795 467.875,189.774C466.596,189.753 466.008,189.354 466.659,188.912C466.952,188.723 469.176,188.828 469.827,189.059ZM489.129,186.767C489.297,186.935 488.164,187.903 486.695,188.849C486.024,189.27 485.521,189.669 485.583,189.753C485.667,189.816 486.15,189.858 486.653,189.816L487.598,189.774L486.57,191.204L486.024,190.931C486.297,190.531 486.108,190.426 484.912,190.279L483.863,190.153L484.513,189.543C484.891,189.206 485.751,188.576 486.423,188.155L487.661,187.377L486.423,186.998C485.751,186.788 484.367,186.557 483.338,186.473C482.331,186.389 481.492,186.22 481.45,186.115C481.429,185.989 482.415,185.337 483.674,184.664C484.912,183.97 485.856,183.339 485.751,183.234C485.485,182.967 484.146,182.791 482.571,182.74L482.589,182.137C485.145,182.212 486.888,182.544 487.073,183.024C487.22,183.424 486.695,183.865 484.702,184.98L483.359,185.737L484.555,185.905C485.227,185.989 486.192,186.178 486.737,186.347C487.262,186.494 487.996,186.641 488.353,186.641C488.71,186.641 489.045,186.704 489.129,186.767Z"></path>
            </g>
        </g>
    </g>
    <defs>
        <radialGradient gradientTransform="matrix(15.1143,3.91188,-3.31151,12.7947,470.625,217.903)" gradientUnits="userSpaceOnUse" r="1" cy="0" cx="0" id="_Radial3"><stop style="stop-color:rgb(255,142,87);stop-opacity:0.78" offset="0"></stop><stop style="stop-color:rgb(255,142,87);stop-opacity:0" offset="1"></stop></radialGradient>
    </defs>
</svg>
